<?xml version="1.0" encoding="UTF-8" standalone="no"?> <!DOCTYPE svg PUBLIC "-//W3C//DTD SVG 1.1//EN"  "http://www.w3.org/Graphics/SVG/1.1/DTD/svg11.dtd"> <!-- Generated by graphviz version 14.1.5 (0)  --> <!-- Pages: 1 --> <svg width="421pt" height="193pt"  viewBox="0.00 0.00 421.00 193.00" xmlns="http://www.w3.org/2000/svg" xmlns:xlink="http://www.w3.org/1999/xlink"> <g id="graph0" class="graph" transform="scale(1 1) rotate(0) translate(28.8 164.66)"> <polygon fill="white" stroke="none" points="-28.8,28.8 -28.8,-164.66 391.95,-164.66 391.95,28.8 -28.8,28.8"/> <text xml:space="preserve" text-anchor="middle" x="181.57" y="-97.66" font-family="Helvetica,sans-Serif" font-size="36.00">bedit_app</text> <!-- bedit_app --> <g id="node1" class="node"> <title>bedit_app</title> <polygon fill="#5397c8" stroke="black" points="0,-41.61 0,-86.11 70,-86.11 70,-41.61 0,-41.61"/> <text xml:space="preserve" text-anchor="middle" x="35" y="-72.61" font-family="monospace" font-size="10.00">crate</text> <polyline fill="none" stroke="black" points="0,-63.86 70,-63.86"/> <text xml:space="preserve" text-anchor="middle" x="35" y="-50.36" font-family="monospace" font-size="10.00">bedit_app</text> </g> <!-- bedit_app::main --> <g id="node2" class="node"> <title>bedit_app::main</title> <polygon fill="#f8c04c" stroke="black" points="257.15,-0.5 257.15,-45 363.15,-45 363.15,-0.5 257.15,-0.5"/> <text xml:space="preserve" text-anchor="middle" x="310.15" y="-31.5" font-family="monospace" font-size="10.00">pub(crate) fn</text> <polyline fill="none" stroke="black" points="257.15,-22.75 363.15,-22.75"/> <text xml:space="preserve" text-anchor="middle" x="310.15" y="-9.25" font-family="monospace" font-size="10.00">bedit_app::main</text> </g> <!-- bedit_app&#45;&gt;bedit_app::main --> <g id="edge1" class="edge"> <title>bedit_app&#45;&gt;bedit_app::main</title> <path fill="none" stroke="#000000" d="M70.41,-58.57C114.51,-51.98 190.72,-40.59 245.38,-32.43"/> <polygon fill="#000000" stroke="#000000" points="245.83,-35.9 255.2,-30.96 244.8,-28.98 245.83,-35.9"/> <text xml:space="preserve" text-anchor="middle" x="145.89" y="-50.25" font-family="monospace" font-size="10.00">owns</text> </g> </g> </svg>
