<?xml version="1.0" encoding="UTF-8" standalone="no"?> <!DOCTYPE svg PUBLIC "-//W3C//DTD SVG 1.1//EN"  "http://www.w3.org/Graphics/SVG/1.1/DTD/svg11.dtd"> <!-- Generated by graphviz version 14.1.5 (0)  --> <!-- Pages: 1 --> <svg width="1278pt" height="1191pt"  viewBox="0.00 0.00 1278.00 1191.00" xmlns="http://www.w3.org/2000/svg" xmlns:xlink="http://www.w3.org/1999/xlink"> <g id="graph0" class="graph" transform="scale(1 1) rotate(0) translate(28.8 1162.28)"> <polygon fill="white" stroke="none" points="-28.8,28.8 -28.8,-1162.28 1248.98,-1162.28 1248.98,28.8 -28.8,28.8"/> <text xml:space="preserve" text-anchor="middle" x="610.09" y="-1095.28" font-family="Helvetica,sans-Serif" font-size="36.00">bedit</text> <!-- bedit --> <g id="node1" class="node"> <title>bedit</title> <polygon fill="#5397c8" stroke="black" points="577.15,-593.14 577.15,-637.64 631.15,-637.64 631.15,-593.14 577.15,-593.14"/> <text xml:space="preserve" text-anchor="middle" x="604.15" y="-624.14" font-family="monospace" font-size="10.00">crate</text> <polyline fill="none" stroke="black" points="577.15,-615.39 631.15,-615.39"/> <text xml:space="preserve" text-anchor="middle" x="604.15" y="-601.89" font-family="monospace" font-size="10.00">bedit</text> </g> <!-- bedit::controller --> <g id="node2" class="node"> <title>bedit::controller</title> <polygon fill="#f8c04c" stroke="black" points="613.2,-827.3 613.2,-871.8 713.2,-871.8 713.2,-827.3 613.2,-827.3"/> <text xml:space="preserve" text-anchor="middle" x="663.2" y="-858.3" font-family="monospace" font-size="10.00">pub(crate) mod</text> <polyline fill="none" stroke="black" points="613.2,-849.55 713.2,-849.55"/> <text xml:space="preserve" text-anchor="middle" x="663.2" y="-836.05" font-family="monospace" font-size="10.00">controller</text> </g> <!-- bedit&#45;&gt;bedit::controller --> <g id="edge1" class="edge"> <title>bedit&#45;&gt;bedit::controller</title> <path fill="none" stroke="#000000" d="M609.81,-637.84C620.21,-679.08 642.41,-767.12 654.65,-815.67"/> <polygon fill="#000000" stroke="#000000" points="651.26,-816.52 657.1,-825.36 658.04,-814.81 651.26,-816.52"/> <text xml:space="preserve" text-anchor="middle" x="620.23" y="-731.5" font-family="monospace" font-size="10.00">owns</text> </g> <!-- bedit::delta --> <g id="node3" class="node"> <title>bedit::delta</title> <polygon fill="#f8c04c" stroke="black" points="245.77,-637.76 245.77,-682.26 345.77,-682.26 345.77,-637.76 245.77,-637.76"/> <text xml:space="preserve" text-anchor="middle" x="295.77" y="-668.76" font-family="monospace" font-size="10.00">pub(crate) mod</text> <polyline fill="none" stroke="black" points="245.77,-660.01 345.77,-660.01"/> <text xml:space="preserve" text-anchor="middle" x="295.77" y="-646.51" font-family="monospace" font-size="10.00">delta</text> </g> <!-- bedit&#45;&gt;bedit::delta --> <g id="edge2" class="edge"> <title>bedit&#45;&gt;bedit::delta</title> <path fill="none" stroke="#000000" d="M576.79,-619.35C527.81,-626.44 424.04,-641.45 357.23,-651.12"/> <polygon fill="#000000" stroke="#000000" points="356.92,-647.63 347.52,-652.52 357.92,-654.56 356.92,-647.63"/> <text xml:space="preserve" text-anchor="middle" x="455.01" y="-639.98" font-family="monospace" font-size="10.00">owns</text> </g> <!-- bedit::exec_ctx --> <g id="node5" class="node"> <title>bedit::exec_ctx</title> <polygon fill="#81c169" stroke="black" points="472.22,-875.05 472.22,-919.55 536.22,-919.55 536.22,-875.05 472.22,-875.05"/> <text xml:space="preserve" text-anchor="middle" x="504.22" y="-906.05" font-family="monospace" font-size="10.00">pub mod</text> <polyline fill="none" stroke="black" points="472.22,-897.3 536.22,-897.3"/> <text xml:space="preserve" text-anchor="middle" x="504.22" y="-883.8" font-family="monospace" font-size="10.00">exec_ctx</text> </g> <!-- bedit&#45;&gt;bedit::exec_ctx --> <g id="edge3" class="edge"> <title>bedit&#45;&gt;bedit::exec_ctx</title> <path fill="none" stroke="#000000" d="M596.14,-637.98C578.6,-687.47 536.71,-805.64 516.1,-863.8"/> <polygon fill="#000000" stroke="#000000" points="512.82,-862.58 512.78,-873.17 519.42,-864.92 512.82,-862.58"/> <text xml:space="preserve" text-anchor="middle" x="544.12" y="-755.64" font-family="monospace" font-size="10.00">owns</text> </g> <!-- bedit::model --> <g id="node6" class="node"> <title>bedit::model</title> <polygon fill="#f8c04c" stroke="black" points="459.28,-278.06 459.28,-322.56 559.28,-322.56 559.28,-278.06 459.28,-278.06"/> <text xml:space="preserve" text-anchor="middle" x="509.28" y="-309.06" font-family="monospace" font-size="10.00">pub(crate) mod</text> <polyline fill="none" stroke="black" points="459.28,-300.31 559.28,-300.31"/> <text xml:space="preserve" text-anchor="middle" x="509.28" y="-286.81" font-family="monospace" font-size="10.00">model</text> </g> <!-- bedit&#45;&gt;bedit::model --> <g id="edge4" class="edge"> <title>bedit&#45;&gt;bedit::model</title> <path fill="none" stroke="#000000" d="M597.33,-592.73C580.82,-537.89 538.63,-397.8 519.27,-333.49"/> <polygon fill="#000000" stroke="#000000" points="522.71,-332.78 516.47,-324.21 516.01,-334.8 522.71,-332.78"/> <text xml:space="preserve" text-anchor="middle" x="546.3" y="-467.86" font-family="monospace" font-size="10.00">owns</text> </g> <!-- bedit::sbe_blob --> <g id="node11" class="node"> <title>bedit::sbe_blob</title> <polygon fill="#f8c04c" stroke="black" points="665.99,-407.42 665.99,-451.92 765.99,-451.92 765.99,-407.42 665.99,-407.42"/> <text xml:space="preserve" text-anchor="middle" x="715.99" y="-438.42" font-family="monospace" font-size="10.00">pub(crate) mod</text> <polyline fill="none" stroke="black" points="665.99,-429.67 765.99,-429.67"/> <text xml:space="preserve" text-anchor="middle" x="715.99" y="-416.17" font-family="monospace" font-size="10.00">sbe_blob</text> </g> <!-- bedit&#45;&gt;bedit::sbe_blob --> <g id="edge5" class="edge"> <title>bedit&#45;&gt;bedit::sbe_blob</title> <path fill="none" stroke="#000000" d="M617.64,-592.98C637.38,-560.22 674.21,-499.05 696.77,-461.59"/> <polygon fill="#000000" stroke="#000000" points="699.51,-463.82 701.67,-453.45 693.52,-460.21 699.51,-463.82"/> <text xml:space="preserve" text-anchor="middle" x="645.21" y="-532.04" font-family="monospace" font-size="10.00">owns</text> </g> <!-- bedit::ssm_conversion --> <g id="node12" class="node"> <title>bedit::ssm_conversion</title> <polygon fill="#f8c04c" stroke="black" points="364.54,-730.4 364.54,-774.9 464.54,-774.9 464.54,-730.4 364.54,-730.4"/> <text xml:space="preserve" text-anchor="middle" x="414.54" y="-761.4" font-family="monospace" font-size="10.00">pub(crate) mod</text> <polyline fill="none" stroke="black" points="364.54,-752.65 464.54,-752.65"/> <text xml:space="preserve" text-anchor="middle" x="414.54" y="-739.15" font-family="monospace" font-size="10.00">ssm_conversion</text> </g> <!-- bedit&#45;&gt;bedit::ssm_conversion --> <g id="edge6" class="edge"> <title>bedit&#45;&gt;bedit::ssm_conversion</title> <path fill="none" stroke="#000000" d="M576.99,-635.05C544.98,-658.22 491.53,-696.92 454.73,-723.56"/> <polygon fill="#000000" stroke="#000000" points="453.03,-720.47 446.98,-729.16 457.13,-726.14 453.03,-720.47"/> <text xml:space="preserve" text-anchor="middle" x="503.86" y="-684.05" font-family="monospace" font-size="10.00">owns</text> </g> <!-- bedit::ssm_map --> <g id="node13" class="node"> <title>bedit::ssm_map</title> <polygon fill="#f8c04c" stroke="black" points="797.25,-489.57 797.25,-534.07 897.25,-534.07 897.25,-489.57 797.25,-489.57"/> <text xml:space="preserve" text-anchor="middle" x="847.25" y="-520.57" font-family="monospace" font-size="10.00">pub(crate) mod</text> <polyline fill="none" stroke="black" points="797.25,-511.82 897.25,-511.82"/> <text xml:space="preserve" text-anchor="middle" x="847.25" y="-498.32" font-family="monospace" font-size="10.00">ssm_map</text> </g> <!-- bedit&#45;&gt;bedit::ssm_map --> <g id="edge7" class="edge"> <title>bedit&#45;&gt;bedit::ssm_map</title> <path fill="none" stroke="#000000" d="M631.57,-603.71C669.01,-587.76 737.17,-558.72 786.87,-537.55"/> <polygon fill="#000000" stroke="#000000" points="787.96,-540.89 795.78,-533.75 785.21,-534.45 787.96,-540.89"/> <text xml:space="preserve" text-anchor="middle" x="697.22" y="-575.38" font-family="monospace" font-size="10.00">owns</text> </g> <!-- bedit::ui --> <g id="node14" class="node"> <title>bedit::ui</title> <polygon fill="#f8c04c" stroke="black" points="854.8,-743.58 854.8,-788.08 954.8,-788.08 954.8,-743.58 854.8,-743.58"/> <text xml:space="preserve" text-anchor="middle" x="904.8" y="-774.58" font-family="monospace" font-size="10.00">pub(crate) mod</text> <polyline fill="none" stroke="black" points="854.8,-765.83 954.8,-765.83"/> <text xml:space="preserve" text-anchor="middle" x="904.8" y="-752.33" font-family="monospace" font-size="10.00">ui</text> </g> <!-- bedit&#45;&gt;bedit::ui --> <g id="edge8" class="edge"> <title>bedit&#45;&gt;bedit::ui</title> <path fill="none" stroke="#000000" d="M631.63,-629.14C680.82,-653.75 784.81,-705.79 849.35,-738.08"/> <polygon fill="#000000" stroke="#000000" points="847.49,-741.06 858,-742.41 850.62,-734.8 847.49,-741.06"/> <text xml:space="preserve" text-anchor="middle" x="728.49" y="-688.36" font-family="monospace" font-size="10.00">owns</text> </g> <!-- bedit::delta::undo_redo --> <g id="node4" class="node"> <title>bedit::delta::undo_redo</title> <polygon fill="#81c169" stroke="black" points="0,-793.47 0,-837.97 112,-837.97 112,-793.47 0,-793.47"/> <text xml:space="preserve" text-anchor="middle" x="56" y="-824.47" font-family="monospace" font-size="10.00">pub mod</text> <polyline fill="none" stroke="black" points="0,-815.72 112,-815.72"/> <text xml:space="preserve" text-anchor="middle" x="56" y="-802.22" font-family="monospace" font-size="10.00">delta::undo_redo</text> </g> <!-- bedit::delta&#45;&gt;bedit::delta::undo_redo --> <g id="edge9" class="edge"> <title>bedit::delta&#45;&gt;bedit::delta::undo_redo</title> <path fill="none" stroke="#000000" d="M260.9,-682.66C218.46,-710.22 146.74,-756.8 100.39,-786.89"/> <polygon fill="#000000" stroke="#000000" points="98.66,-783.85 92.18,-792.23 102.47,-789.72 98.66,-783.85"/> <text xml:space="preserve" text-anchor="middle" x="168.65" y="-739.52" font-family="monospace" font-size="10.00">owns</text> </g> <!-- bedit::model::block --> <g id="node7" class="node"> <title>bedit::model::block</title> <polygon fill="#db5367" stroke="black" points="173.93,-241.16 173.93,-285.66 267.93,-285.66 267.93,-241.16 173.93,-241.16"/> <text xml:space="preserve" text-anchor="middle" x="220.93" y="-272.16" font-family="monospace" font-size="10.00">pub(self) mod</text> <polyline fill="none" stroke="black" points="173.93,-263.41 267.93,-263.41"/> <text xml:space="preserve" text-anchor="middle" x="220.93" y="-249.91" font-family="monospace" font-size="10.00">model::block</text> </g> <!-- bedit::model&#45;&gt;bedit::model::block --> <g id="edge10" class="edge"> <title>bedit::model&#45;&gt;bedit::model::block</title> <path fill="none" stroke="#000000" d="M459.05,-293.88C408.99,-287.48 332.17,-277.65 279.4,-270.89"/> <polygon fill="#000000" stroke="#000000" points="280.05,-267.45 269.69,-269.65 279.17,-274.39 280.05,-267.45"/> <text xml:space="preserve" text-anchor="middle" x="357.22" y="-287.14" font-family="monospace" font-size="10.00">owns</text> </g> <!-- bedit::model::component --> <g id="node8" class="node"> <title>bedit::model::component</title> <polygon fill="#db5367" stroke="black" points="684.45,-75.05 684.45,-119.55 796.45,-119.55 796.45,-75.05 684.45,-75.05"/> <text xml:space="preserve" text-anchor="middle" x="740.45" y="-106.05" font-family="monospace" font-size="10.00">pub(self) mod</text> <polyline fill="none" stroke="black" points="684.45,-97.3 796.45,-97.3"/> <text xml:space="preserve" text-anchor="middle" x="740.45" y="-83.8" font-family="monospace" font-size="10.00">model::component</text> </g> <!-- bedit::model&#45;&gt;bedit::model::component --> <g id="edge11" class="edge"> <title>bedit::model&#45;&gt;bedit::model::component</title> <path fill="none" stroke="#000000" d="M534.9,-277.81C576.64,-241.15 659.36,-168.51 706.13,-127.43"/> <polygon fill="#000000" stroke="#000000" points="708.37,-130.13 713.57,-120.9 703.75,-124.87 708.37,-130.13"/> <text xml:space="preserve" text-anchor="middle" x="608.52" y="-207.37" font-family="monospace" font-size="10.00">owns</text> </g> <!-- bedit::model::prj --> <g id="node9" class="node"> <title>bedit::model::prj</title> <polygon fill="#db5367" stroke="black" points="288.36,-65.95 288.36,-110.45 382.36,-110.45 382.36,-65.95 288.36,-65.95"/> <text xml:space="preserve" text-anchor="middle" x="335.36" y="-96.95" font-family="monospace" font-size="10.00">pub(self) mod</text> <polyline fill="none" stroke="black" points="288.36,-88.2 382.36,-88.2"/> <text xml:space="preserve" text-anchor="middle" x="335.36" y="-74.7" font-family="monospace" font-size="10.00">model::prj</text> </g> <!-- bedit::model&#45;&gt;bedit::model::prj --> <g id="edge12" class="edge"> <title>bedit::model&#45;&gt;bedit::model::prj</title> <path fill="none" stroke="#000000" d="M490.66,-277.61C459.41,-239.5 396.35,-162.58 360.95,-119.41"/> <polygon fill="#000000" stroke="#000000" points="363.85,-117.42 354.8,-111.9 358.44,-121.86 363.85,-117.42"/> <text xml:space="preserve" text-anchor="middle" x="413.81" y="-203.26" font-family="monospace" font-size="10.00">owns</text> </g> <!-- bedit::model::sf --> <g id="node10" class="node"> <title>bedit::model::sf</title> <polygon fill="#db5367" stroke="black" points="503.27,-0.5 503.27,-45 597.27,-45 597.27,-0.5 503.27,-0.5"/> <text xml:space="preserve" text-anchor="middle" x="550.27" y="-31.5" font-family="monospace" font-size="10.00">pub(self) mod</text> <polyline fill="none" stroke="black" points="503.27,-22.75 597.27,-22.75"/> <text xml:space="preserve" text-anchor="middle" x="550.27" y="-9.25" font-family="monospace" font-size="10.00">model::sf</text> </g> <!-- bedit::model&#45;&gt;bedit::model::sf --> <g id="edge13" class="edge"> <title>bedit::model&#45;&gt;bedit::model::sf</title> <path fill="none" stroke="#000000" d="M512.63,-277.6C519.83,-228.88 536.77,-114.15 545.25,-56.73"/> <polygon fill="#000000" stroke="#000000" points="548.71,-57.29 546.71,-46.89 541.78,-56.27 548.71,-57.29"/> <text xml:space="preserve" text-anchor="middle" x="516.94" y="-171.91" font-family="monospace" font-size="10.00">owns</text> </g> <!-- bedit::ui::index_vec_model --> <g id="node15" class="node"> <title>bedit::ui::index_vec_model</title> <polygon fill="#db5367" stroke="black" points="874.41,-1039.23 874.41,-1083.73 1004.41,-1083.73 1004.41,-1039.23 874.41,-1039.23"/> <text xml:space="preserve" text-anchor="middle" x="939.41" y="-1070.23" font-family="monospace" font-size="10.00">pub(self) mod</text> <polyline fill="none" stroke="black" points="874.41,-1061.48 1004.41,-1061.48"/> <text xml:space="preserve" text-anchor="middle" x="939.41" y="-1047.98" font-family="monospace" font-size="10.00">ui::index_vec_model</text> </g> <!-- bedit::ui&#45;&gt;bedit::ui::index_vec_model --> <g id="edge14" class="edge"> <title>bedit::ui&#45;&gt;bedit::ui::index_vec_model</title> <path fill="none" stroke="#000000" d="M907.46,-788.54C913.52,-840.26 928.35,-967.03 935.47,-1027.85"/> <polygon fill="#000000" stroke="#000000" points="931.97,-1028.07 936.61,-1037.59 938.93,-1027.25 931.97,-1028.07"/> <text xml:space="preserve" text-anchor="middle" x="909.47" y="-912.95" font-family="monospace" font-size="10.00">owns</text> </g> <!-- bedit::ui::inject --> <g id="node16" class="node"> <title>bedit::ui::inject</title> <polygon fill="#db5367" stroke="black" points="1126.18,-613.89 1126.18,-658.39 1220.18,-658.39 1220.18,-613.89 1126.18,-613.89"/> <text xml:space="preserve" text-anchor="middle" x="1173.18" y="-644.89" font-family="monospace" font-size="10.00">pub(self) mod</text> <polyline fill="none" stroke="black" points="1126.18,-636.14 1220.18,-636.14"/> <text xml:space="preserve" text-anchor="middle" x="1173.18" y="-622.64" font-family="monospace" font-size="10.00">ui::inject</text> </g> <!-- bedit::ui&#45;&gt;bedit::ui::inject --> <g id="edge15" class="edge"> <title>bedit::ui&#45;&gt;bedit::ui::inject</title> <path fill="none" stroke="#000000" d="M951.86,-743.09C997.61,-720.98 1067.18,-687.37 1116.07,-663.74"/> <polygon fill="#000000" stroke="#000000" points="1117.34,-667.02 1124.82,-659.51 1114.29,-660.71 1117.34,-667.02"/> <text xml:space="preserve" text-anchor="middle" x="1021.97" y="-708.17" font-family="monospace" font-size="10.00">owns</text> </g> <!-- bedit::ui::model_adapter --> <g id="node17" class="node"> <title>bedit::ui::model_adapter</title> <polygon fill="#db5367" stroke="black" points="1083.93,-870.1 1083.93,-914.6 1201.93,-914.6 1201.93,-870.1 1083.93,-870.1"/> <text xml:space="preserve" text-anchor="middle" x="1142.93" y="-901.1" font-family="monospace" font-size="10.00">pub(self) mod</text> <polyline fill="none" stroke="black" points="1083.93,-892.35 1201.93,-892.35"/> <text xml:space="preserve" text-anchor="middle" x="1142.93" y="-878.85" font-family="monospace" font-size="10.00">ui::model_adapter</text> </g> <!-- bedit::ui&#45;&gt;bedit::ui::model_adapter --> <g id="edge16" class="edge"> <title>bedit::ui&#45;&gt;bedit::ui::model_adapter</title> <path fill="none" stroke="#000000" d="M947.38,-788.45C987.38,-809.7 1047.36,-841.57 1090.33,-864.4"/> <polygon fill="#000000" stroke="#000000" points="1088.51,-867.4 1098.99,-869 1091.8,-861.22 1088.51,-867.4"/> <text xml:space="preserve" text-anchor="middle" x="1006.86" y="-831.18" font-family="monospace" font-size="10.00">owns</text> </g> </g> </svg>
