<?xml version="1.0" encoding="UTF-8" standalone="no"?> <!DOCTYPE svg PUBLIC "-//W3C//DTD SVG 1.1//EN"  "http://www.w3.org/Graphics/SVG/1.1/DTD/svg11.dtd"> <!-- Generated by graphviz version 14.1.5 (0)  --> <!-- Pages: 1 --> <svg width="615pt" height="712pt"  viewBox="0.00 0.00 615.00 712.00" xmlns="http://www.w3.org/2000/svg" xmlns:xlink="http://www.w3.org/1999/xlink"> <g id="graph0" class="graph" transform="scale(1 1) rotate(0) translate(28.8 683.62)"> <polygon fill="white" stroke="none" points="-28.8,28.8 -28.8,-683.62 586.57,-683.62 586.57,28.8 -28.8,28.8"/> <text xml:space="preserve" text-anchor="middle" x="278.89" y="-616.62" font-family="Helvetica,sans-Serif" font-size="36.00">delta</text> <!-- delta --> <g id="node1" class="node"> <title>delta</title> <polygon fill="#5397c8" stroke="black" points="257.56,-280.46 257.56,-324.96 311.56,-324.96 311.56,-280.46 257.56,-280.46"/> <text xml:space="preserve" text-anchor="middle" x="284.56" y="-311.46" font-family="monospace" font-size="10.00">crate</text> <polyline fill="none" stroke="black" points="257.56,-302.71 311.56,-302.71"/> <text xml:space="preserve" text-anchor="middle" x="284.56" y="-289.21" font-family="monospace" font-size="10.00">delta</text> </g> <!-- delta::delta --> <g id="node2" class="node"> <title>delta::delta</title> <polygon fill="#81c169" stroke="black" points="497.79,-139.64 497.79,-184.14 555.79,-184.14 555.79,-139.64 497.79,-139.64"/> <text xml:space="preserve" text-anchor="middle" x="526.79" y="-170.64" font-family="monospace" font-size="10.00">pub mod</text> <polyline fill="none" stroke="black" points="497.79,-161.89 555.79,-161.89"/> <text xml:space="preserve" text-anchor="middle" x="526.79" y="-148.39" font-family="monospace" font-size="10.00">delta</text> </g> <!-- delta&#45;&gt;delta::delta --> <g id="edge1" class="edge"> <title>delta&#45;&gt;delta::delta</title> <path fill="none" stroke="#000000" d="M311.87,-286.83C354.82,-261.87 438.31,-213.33 487.63,-184.66"/> <polygon fill="#000000" stroke="#000000" points="489.12,-187.84 496.01,-179.79 485.6,-181.79 489.12,-187.84"/> <text xml:space="preserve" text-anchor="middle" x="387.75" y="-240.49" font-family="monospace" font-size="10.00">owns</text> </g> <!-- delta::delta_manager --> <g id="node3" class="node"> <title>delta::delta_manager</title> <polygon fill="#81c169" stroke="black" points="236.99,-0.5 236.99,-45 330.99,-45 330.99,-0.5 236.99,-0.5"/> <text xml:space="preserve" text-anchor="middle" x="283.99" y="-31.5" font-family="monospace" font-size="10.00">pub mod</text> <polyline fill="none" stroke="black" points="236.99,-22.75 330.99,-22.75"/> <text xml:space="preserve" text-anchor="middle" x="283.99" y="-9.25" font-family="monospace" font-size="10.00">delta_manager</text> </g> <!-- delta&#45;&gt;delta::delta_manager --> <g id="edge2" class="edge"> <title>delta&#45;&gt;delta::delta_manager</title> <path fill="none" stroke="#000000" d="M284.51,-280.28C284.41,-231.34 284.18,-114.75 284.06,-56.74"/> <polygon fill="#000000" stroke="#000000" points="287.56,-56.8 284.04,-46.81 280.56,-56.81 287.56,-56.8"/> <text xml:space="preserve" text-anchor="middle" x="272.29" y="-173.26" font-family="monospace" font-size="10.00">owns</text> </g> <!-- delta::hasher --> <g id="node4" class="node"> <title>delta::hasher</title> <polygon fill="#81c169" stroke="black" points="15.52,-424.49 15.52,-468.99 73.52,-468.99 73.52,-424.49 15.52,-424.49"/> <text xml:space="preserve" text-anchor="middle" x="44.52" y="-455.49" font-family="monospace" font-size="10.00">pub mod</text> <polyline fill="none" stroke="black" points="15.52,-446.74 73.52,-446.74"/> <text xml:space="preserve" text-anchor="middle" x="44.52" y="-433.24" font-family="monospace" font-size="10.00">hasher</text> </g> <!-- delta&#45;&gt;delta::hasher --> <g id="edge3" class="edge"> <title>delta&#45;&gt;delta::hasher</title> <path fill="none" stroke="#000000" d="M257.49,-318.96C214.93,-344.49 132.2,-394.13 83.32,-423.46"/> <polygon fill="#000000" stroke="#000000" points="81.8,-420.29 75.02,-428.43 85.4,-426.29 81.8,-420.29"/> <text xml:space="preserve" text-anchor="middle" x="158.4" y="-375.96" font-family="monospace" font-size="10.00">owns</text> </g> <!-- delta::prelude --> <g id="node5" class="node"> <title>delta::prelude</title> <polygon fill="#81c169" stroke="black" points="499.77,-418 499.77,-462.5 557.77,-462.5 557.77,-418 499.77,-418"/> <text xml:space="preserve" text-anchor="middle" x="528.77" y="-449" font-family="monospace" font-size="10.00">pub mod</text> <polyline fill="none" stroke="black" points="499.77,-440.25 557.77,-440.25"/> <text xml:space="preserve" text-anchor="middle" x="528.77" y="-426.75" font-family="monospace" font-size="10.00">prelude</text> </g> <!-- delta&#45;&gt;delta::prelude --> <g id="edge4" class="edge"> <title>delta&#45;&gt;delta::prelude</title> <path fill="none" stroke="#000000" d="M311.62,-317.96C354.85,-342.3 439.64,-390.05 489.52,-418.15"/> <polygon fill="#000000" stroke="#000000" points="487.56,-421.06 497.99,-422.92 490.99,-414.96 487.56,-421.06"/> <text xml:space="preserve" text-anchor="middle" x="388.57" y="-372.8" font-family="monospace" font-size="10.00">owns</text> </g> <!-- delta::present --> <g id="node6" class="node"> <title>delta::present</title> <polygon fill="#81c169" stroke="black" points="260.43,-560.57 260.43,-605.07 318.43,-605.07 318.43,-560.57 260.43,-560.57"/> <text xml:space="preserve" text-anchor="middle" x="289.43" y="-591.57" font-family="monospace" font-size="10.00">pub mod</text> <polyline fill="none" stroke="black" points="260.43,-582.82 318.43,-582.82"/> <text xml:space="preserve" text-anchor="middle" x="289.43" y="-569.32" font-family="monospace" font-size="10.00">present</text> </g> <!-- delta&#45;&gt;delta::present --> <g id="edge5" class="edge"> <title>delta&#45;&gt;delta::present</title> <path fill="none" stroke="#000000" d="M284.95,-325.16C285.8,-374.13 287.83,-490.77 288.84,-548.81"/> <polygon fill="#000000" stroke="#000000" points="285.34,-548.81 289.01,-558.75 292.34,-548.69 285.34,-548.81"/> <text xml:space="preserve" text-anchor="middle" x="274.89" y="-441.74" font-family="monospace" font-size="10.00">owns</text> </g> <!-- delta::ring_buffer --> <g id="node7" class="node"> <title>delta::ring_buffer</title> <polygon fill="#81c169" stroke="black" points="0,-142.65 0,-187.15 82,-187.15 82,-142.65 0,-142.65"/> <text xml:space="preserve" text-anchor="middle" x="41" y="-173.65" font-family="monospace" font-size="10.00">pub mod</text> <polyline fill="none" stroke="black" points="0,-164.9 82,-164.9"/> <text xml:space="preserve" text-anchor="middle" x="41" y="-151.4" font-family="monospace" font-size="10.00">ring_buffer</text> </g> <!-- delta&#45;&gt;delta::ring_buffer --> <g id="edge6" class="edge"> <title>delta&#45;&gt;delta::ring_buffer</title> <path fill="none" stroke="#000000" d="M257.09,-287.17C216.82,-264.39 141.1,-221.54 90.84,-193.11"/> <polygon fill="#000000" stroke="#000000" points="92.59,-190.07 82.16,-188.19 89.14,-196.16 92.59,-190.07"/> <text xml:space="preserve" text-anchor="middle" x="161.97" y="-244.89" font-family="monospace" font-size="10.00">owns</text> </g> </g> </svg>
