<?xml version="1.0" encoding="UTF-8" standalone="no"?> <!DOCTYPE svg PUBLIC "-//W3C//DTD SVG 1.1//EN"  "http://www.w3.org/Graphics/SVG/1.1/DTD/svg11.dtd"> <!-- Generated by graphviz version 14.1.5 (0)  --> <!-- Pages: 1 --> <svg width="1811pt" height="1547pt"  viewBox="0.00 0.00 1811.00 1547.00" xmlns="http://www.w3.org/2000/svg" xmlns:xlink="http://www.w3.org/1999/xlink"> <g id="graph0" class="graph" transform="scale(1 1) rotate(0) translate(28.8 1518)"> <polygon fill="white" stroke="none" points="-28.8,28.8 -28.8,-1518 1782.08,-1518 1782.08,28.8 -28.8,28.8"/> <text xml:space="preserve" text-anchor="middle" x="876.64" y="-1451" font-family="Helvetica,sans-Serif" font-size="36.00">delta</text> <!-- delta --> <g id="node1" class="node"> <title>delta</title> <polygon fill="#5397c8" stroke="black" points="899.35,-695.81 899.35,-740.31 953.35,-740.31 953.35,-695.81 899.35,-695.81"/> <text xml:space="preserve" text-anchor="middle" x="926.35" y="-726.81" font-family="monospace" font-size="10.00">crate</text> <polyline fill="none" stroke="black" points="899.35,-718.06 953.35,-718.06"/> <text xml:space="preserve" text-anchor="middle" x="926.35" y="-704.56" font-family="monospace" font-size="10.00">delta</text> </g> <!-- delta::delta --> <g id="node2" class="node"> <title>delta::delta</title> <polygon fill="#81c169" stroke="black" points="700.96,-455.17 700.96,-499.67 788.96,-499.67 788.96,-455.17 700.96,-455.17"/> <text xml:space="preserve" text-anchor="middle" x="744.96" y="-486.17" font-family="monospace" font-size="10.00">pub mod</text> <polyline fill="none" stroke="black" points="700.96,-477.42 788.96,-477.42"/> <text xml:space="preserve" text-anchor="middle" x="744.96" y="-463.92" font-family="monospace" font-size="10.00">delta::delta</text> </g> <!-- delta&#45;&gt;delta::delta --> <g id="edge1" class="edge"> <title>delta&#45;&gt;delta::delta</title> <path fill="none" stroke="#000000" d="M909.28,-695.43C876.72,-652.23 805.67,-557.97 768.57,-508.75"/> <polygon fill="#000000" stroke="#000000" points="771.57,-506.91 762.76,-501.03 765.98,-511.13 771.57,-506.91"/> <text xml:space="preserve" text-anchor="middle" x="826.93" y="-606.84" font-family="monospace" font-size="10.00">owns</text> </g> <!-- delta::delta_manager --> <g id="node9" class="node"> <title>delta::delta_manager</title> <polygon fill="#81c169" stroke="black" points="1018.57,-495.23 1018.57,-539.73 1154.57,-539.73 1154.57,-495.23 1018.57,-495.23"/> <text xml:space="preserve" text-anchor="middle" x="1086.57" y="-526.23" font-family="monospace" font-size="10.00">pub mod</text> <polyline fill="none" stroke="black" points="1018.57,-517.48 1154.57,-517.48"/> <text xml:space="preserve" text-anchor="middle" x="1086.57" y="-503.98" font-family="monospace" font-size="10.00">delta::delta_manager</text> </g> <!-- delta&#45;&gt;delta::delta_manager --> <g id="edge2" class="edge"> <title>delta&#45;&gt;delta::delta_manager</title> <path fill="none" stroke="#000000" d="M944.42,-695.44C973.04,-659.61 1028.89,-589.69 1061.42,-548.97"/> <polygon fill="#000000" stroke="#000000" points="1064.12,-551.2 1067.63,-541.2 1058.65,-546.83 1064.12,-551.2"/> <text xml:space="preserve" text-anchor="middle" x="990.92" y="-626.96" font-family="monospace" font-size="10.00">owns</text> </g> <!-- delta::hasher --> <g id="node17" class="node"> <title>delta::hasher</title> <polygon fill="#81c169" stroke="black" points="703.88,-618.94 703.88,-663.44 797.88,-663.44 797.88,-618.94 703.88,-618.94"/> <text xml:space="preserve" text-anchor="middle" x="750.88" y="-649.94" font-family="monospace" font-size="10.00">pub mod</text> <polyline fill="none" stroke="black" points="703.88,-641.19 797.88,-641.19"/> <text xml:space="preserve" text-anchor="middle" x="750.88" y="-627.69" font-family="monospace" font-size="10.00">delta::hasher</text> </g> <!-- delta&#45;&gt;delta::hasher --> <g id="edge3" class="edge"> <title>delta&#45;&gt;delta::hasher</title> <path fill="none" stroke="#000000" d="M898.93,-706.05C874.88,-695.51 839.1,-679.84 808.74,-666.53"/> <polygon fill="#000000" stroke="#000000" points="810.2,-663.36 799.64,-662.55 807.39,-669.77 810.2,-663.36"/> <text xml:space="preserve" text-anchor="middle" x="841.83" y="-691.04" font-family="monospace" font-size="10.00">owns</text> </g> <!-- delta::prelude --> <g id="node19" class="node"> <title>delta::prelude</title> <polygon fill="#81c169" stroke="black" points="788.22,-738.32 788.22,-782.82 888.22,-782.82 888.22,-738.32 788.22,-738.32"/> <text xml:space="preserve" text-anchor="middle" x="838.22" y="-769.32" font-family="monospace" font-size="10.00">pub mod</text> <polyline fill="none" stroke="black" points="788.22,-760.57 888.22,-760.57"/> <text xml:space="preserve" text-anchor="middle" x="838.22" y="-747.07" font-family="monospace" font-size="10.00">delta::prelude</text> </g> <!-- delta&#45;&gt;delta::prelude --> <g id="edge4" class="edge"> <title>delta&#45;&gt;delta::prelude</title> <path fill="none" stroke="#000000" d="M898.95,-731.28C897.86,-731.8 896.76,-732.34 895.64,-732.87"/> <polygon fill="#000000" stroke="#000000" points="894.21,-729.68 886.72,-737.18 897.25,-735.98 894.21,-729.68"/> <text xml:space="preserve" text-anchor="middle" x="885.29" y="-736.83" font-family="monospace" font-size="10.00">owns</text> </g> <!-- delta::present --> <g id="node20" class="node"> <title>delta::present</title> <polygon fill="#81c169" stroke="black" points="1083.51,-870.75 1083.51,-915.25 1183.51,-915.25 1183.51,-870.75 1083.51,-870.75"/> <text xml:space="preserve" text-anchor="middle" x="1133.51" y="-901.75" font-family="monospace" font-size="10.00">pub mod</text> <polyline fill="none" stroke="black" points="1083.51,-893 1183.51,-893"/> <text xml:space="preserve" text-anchor="middle" x="1133.51" y="-879.5" font-family="monospace" font-size="10.00">delta::present</text> </g> <!-- delta&#45;&gt;delta::present --> <g id="edge5" class="edge"> <title>delta&#45;&gt;delta::present</title> <path fill="none" stroke="#000000" d="M953.01,-740.58C989.96,-771.78 1056.85,-828.26 1098,-863.02"/> <polygon fill="#000000" stroke="#000000" points="1095.57,-865.54 1105.46,-869.32 1100.08,-860.19 1095.57,-865.54"/> <text xml:space="preserve" text-anchor="middle" x="1013.5" y="-806.55" font-family="monospace" font-size="10.00">owns</text> </g> <!-- delta::ring_buffer --> <g id="node29" class="node"> <title>delta::ring_buffer</title> <polygon fill="#81c169" stroke="black" points="673.76,-917.98 673.76,-962.48 797.76,-962.48 797.76,-917.98 673.76,-917.98"/> <text xml:space="preserve" text-anchor="middle" x="735.76" y="-948.98" font-family="monospace" font-size="10.00">pub mod</text> <polyline fill="none" stroke="black" points="673.76,-940.23 797.76,-940.23"/> <text xml:space="preserve" text-anchor="middle" x="735.76" y="-926.73" font-family="monospace" font-size="10.00">delta::ring_buffer</text> </g> <!-- delta&#45;&gt;delta::ring_buffer --> <g id="edge6" class="edge"> <title>delta&#45;&gt;delta::ring_buffer</title> <path fill="none" stroke="#000000" d="M907.02,-740.59C872.78,-780.51 801.39,-863.73 762.46,-909.1"/> <polygon fill="#000000" stroke="#000000" points="759.97,-906.63 756.12,-916.5 765.29,-911.19 759.97,-906.63"/> <text xml:space="preserve" text-anchor="middle" x="822.74" y="-829.59" font-family="monospace" font-size="10.00">owns</text> </g> <!-- delta::delta::Delta --> <g id="node3" class="node"> <title>delta::delta::Delta</title> <polygon fill="#81c169" stroke="black" points="737.65,-266.07 737.65,-310.57 867.65,-310.57 867.65,-266.07 737.65,-266.07"/> <text xml:space="preserve" text-anchor="middle" x="802.65" y="-297.07" font-family="monospace" font-size="10.00">pub trait</text> <polyline fill="none" stroke="black" points="737.65,-288.32 867.65,-288.32"/> <text xml:space="preserve" text-anchor="middle" x="802.65" y="-274.82" font-family="monospace" font-size="10.00">delta::delta::Delta</text> </g> <!-- delta::delta&#45;&gt;delta::delta::Delta --> <g id="edge7" class="edge"> <title>delta::delta&#45;&gt;delta::delta::Delta</title> <path fill="none" stroke="#000000" d="M751.8,-454.99C761.88,-421.95 780.78,-360 792.49,-321.64"/> <polygon fill="#000000" stroke="#000000" points="795.72,-323.05 795.29,-312.47 789.02,-321.01 795.72,-323.05"/> <text xml:space="preserve" text-anchor="middle" x="760.14" y="-393.06" font-family="monospace" font-size="10.00">owns</text> </g> <!-- delta::delta::DeltaContainer --> <g id="node4" class="node"> <title>delta::delta::DeltaContainer</title> <polygon fill="#f8c04c" stroke="black" points="438.44,-247.81 438.44,-292.31 622.44,-292.31 622.44,-247.81 438.44,-247.81"/> <text xml:space="preserve" text-anchor="middle" x="530.44" y="-278.81" font-family="monospace" font-size="10.00">pub(crate) struct</text> <polyline fill="none" stroke="black" points="438.44,-270.06 622.44,-270.06"/> <text xml:space="preserve" text-anchor="middle" x="530.44" y="-256.56" font-family="monospace" font-size="10.00">delta::delta::DeltaContainer</text> </g> <!-- delta::delta&#45;&gt;delta::delta::DeltaContainer --> <g id="edge8" class="edge"> <title>delta::delta&#45;&gt;delta::delta::DeltaContainer</title> <path fill="none" stroke="#000000" d="M721.59,-454.84C682.91,-417.44 605.51,-342.63 562.01,-300.57"/> <polygon fill="#000000" stroke="#000000" points="564.49,-298.1 554.87,-293.67 559.62,-303.14 564.49,-298.1"/> <text xml:space="preserve" text-anchor="middle" x="629.8" y="-382.45" font-family="monospace" font-size="10.00">owns</text> </g> <!-- delta::delta::DeltaContainer::apply --> <g id="node5" class="node"> <title>delta::delta::DeltaContainer::apply</title> <polygon fill="#f8c04c" stroke="black" points="554.57,-0.5 554.57,-45 780.57,-45 780.57,-0.5 554.57,-0.5"/> <text xml:space="preserve" text-anchor="middle" x="667.57" y="-31.5" font-family="monospace" font-size="10.00">pub(crate) fn</text> <polyline fill="none" stroke="black" points="554.57,-22.75 780.57,-22.75"/> <text xml:space="preserve" text-anchor="middle" x="667.57" y="-9.25" font-family="monospace" font-size="10.00">delta::delta::DeltaContainer::apply</text> </g> <!-- delta::delta::DeltaContainer&#45;&gt;delta::delta::DeltaContainer::apply --> <g id="edge9" class="edge"> <title>delta::delta::DeltaContainer&#45;&gt;delta::delta::DeltaContainer::apply</title> <path fill="none" stroke="#000000" d="M542.85,-247.68C567.22,-203.74 621.38,-106.05 649.64,-55.09"/> <polygon fill="#000000" stroke="#000000" points="652.57,-57.03 654.36,-46.58 646.45,-53.63 652.57,-57.03"/> <text xml:space="preserve" text-anchor="middle" x="584.25" y="-156.14" font-family="monospace" font-size="10.00">owns</text> </g> <!-- delta::delta::DeltaContainer::clone --> <g id="node6" class="node"> <title>delta::delta::DeltaContainer::clone</title> <polygon fill="#db5367" stroke="black" points="143.22,-262.8 143.22,-307.3 369.22,-307.3 369.22,-262.8 143.22,-262.8"/> <text xml:space="preserve" text-anchor="middle" x="256.22" y="-293.8" font-family="monospace" font-size="10.00">pub(self) fn</text> <polyline fill="none" stroke="black" points="143.22,-285.05 369.22,-285.05"/> <text xml:space="preserve" text-anchor="middle" x="256.22" y="-271.55" font-family="monospace" font-size="10.00">delta::delta::DeltaContainer::clone</text> </g> <!-- delta::delta::DeltaContainer&#45;&gt;delta::delta::DeltaContainer::clone --> <g id="edge10" class="edge"> <title>delta::delta::DeltaContainer&#45;&gt;delta::delta::DeltaContainer::clone</title> <path fill="none" stroke="#000000" d="M437.99,-275.11C419.66,-276.12 400.14,-277.18 380.94,-278.23"/> <polygon fill="#000000" stroke="#000000" points="381,-274.72 371.2,-278.76 381.38,-281.71 381,-274.72"/> <text xml:space="preserve" text-anchor="middle" x="397.47" y="-281.42" font-family="monospace" font-size="10.00">owns</text> </g> <!-- delta::delta::DeltaContainer::from_difference --> <g id="node7" class="node"> <title>delta::delta::DeltaContainer::from_difference</title> <polygon fill="#f8c04c" stroke="black" points="164.11,-120.89 164.11,-165.39 450.11,-165.39 450.11,-120.89 164.11,-120.89"/> <text xml:space="preserve" text-anchor="middle" x="307.11" y="-151.89" font-family="monospace" font-size="10.00">pub(crate) fn</text> <polyline fill="none" stroke="black" points="164.11,-143.14 450.11,-143.14"/> <text xml:space="preserve" text-anchor="middle" x="307.11" y="-129.64" font-family="monospace" font-size="10.00">delta::delta::DeltaContainer::from_difference</text> </g> <!-- delta::delta::DeltaContainer&#45;&gt;delta::delta::DeltaContainer::from_difference --> <g id="edge11" class="edge"> <title>delta::delta::DeltaContainer&#45;&gt;delta::delta::DeltaContainer::from_difference</title> <path fill="none" stroke="#000000" d="M490.52,-247.37C453.16,-226.14 397.22,-194.35 356.95,-171.46"/> <polygon fill="#000000" stroke="#000000" points="358.81,-168.49 348.38,-166.6 355.35,-174.58 358.81,-168.49"/> <text xml:space="preserve" text-anchor="middle" x="411.73" y="-214.17" font-family="monospace" font-size="10.00">owns</text> </g> <!-- delta::delta::DeltaContainer::rewind --> <g id="node8" class="node"> <title>delta::delta::DeltaContainer::rewind</title> <polygon fill="#f8c04c" stroke="black" points="314.35,-21.83 314.35,-66.33 546.35,-66.33 546.35,-21.83 314.35,-21.83"/> <text xml:space="preserve" text-anchor="middle" x="430.35" y="-52.83" font-family="monospace" font-size="10.00">pub(crate) fn</text> <polyline fill="none" stroke="black" points="314.35,-44.08 546.35,-44.08"/> <text xml:space="preserve" text-anchor="middle" x="430.35" y="-30.58" font-family="monospace" font-size="10.00">delta::delta::DeltaContainer::rewind</text> </g> <!-- delta::delta::DeltaContainer&#45;&gt;delta::delta::DeltaContainer::rewind --> <g id="edge12" class="edge"> <title>delta::delta::DeltaContainer&#45;&gt;delta::delta::DeltaContainer::rewind</title> <path fill="none" stroke="#000000" d="M520.48,-247.57C502.76,-207.57 465.71,-123.91 445.05,-77.28"/> <polygon fill="#000000" stroke="#000000" points="448.28,-75.93 441.03,-68.2 441.88,-78.76 448.28,-75.93"/> <text xml:space="preserve" text-anchor="middle" x="470.77" y="-167.17" font-family="monospace" font-size="10.00">owns</text> </g> <!-- delta::delta_manager::DeltaManager --> <g id="node10" class="node"> <title>delta::delta_manager::DeltaManager</title> <polygon fill="#81c169" stroke="black" points="1177.01,-301.6 1177.01,-346.1 1397.01,-346.1 1397.01,-301.6 1177.01,-301.6"/> <text xml:space="preserve" text-anchor="middle" x="1287.01" y="-332.6" font-family="monospace" font-size="10.00">pub struct</text> <polyline fill="none" stroke="black" points="1177.01,-323.85 1397.01,-323.85"/> <text xml:space="preserve" text-anchor="middle" x="1287.01" y="-310.35" font-family="monospace" font-size="10.00">delta::delta_manager::DeltaManager</text> </g> <!-- delta::delta_manager&#45;&gt;delta::delta_manager::DeltaManager --> <g id="edge13" class="edge"> <title>delta::delta_manager&#45;&gt;delta::delta_manager::DeltaManager</title> <path fill="none" stroke="#000000" d="M1109.96,-494.89C1145.92,-460.15 1214.86,-393.54 1255.29,-354.49"/> <polygon fill="#000000" stroke="#000000" points="1257.61,-357.11 1262.37,-347.65 1252.75,-352.08 1257.61,-357.11"/> <text xml:space="preserve" text-anchor="middle" x="1170.62" y="-429.44" font-family="monospace" font-size="10.00">owns</text> </g> <!-- delta::delta_manager::DeltaManager::clone --> <g id="node11" class="node"> <title>delta::delta_manager::DeltaManager::clone</title> <polygon fill="#db5367" stroke="black" points="1124.59,-42.84 1124.59,-87.34 1386.59,-87.34 1386.59,-42.84 1124.59,-42.84"/> <text xml:space="preserve" text-anchor="middle" x="1255.59" y="-73.84" font-family="monospace" font-size="10.00">pub(self) fn</text> <polyline fill="none" stroke="black" points="1124.59,-65.09 1386.59,-65.09"/> <text xml:space="preserve" text-anchor="middle" x="1255.59" y="-51.59" font-family="monospace" font-size="10.00">delta::delta_manager::DeltaManager::clone</text> </g> <!-- delta::delta_manager::DeltaManager&#45;&gt;delta::delta_manager::DeltaManager::clone --> <g id="edge14" class="edge"> <title>delta::delta_manager::DeltaManager&#45;&gt;delta::delta_manager::DeltaManager::clone</title> <path fill="none" stroke="#000000" d="M1284.28,-301.34C1278.75,-255.84 1266.23,-152.72 1259.71,-99.03"/> <polygon fill="#000000" stroke="#000000" points="1263.2,-98.74 1258.52,-89.24 1256.26,-99.59 1263.2,-98.74"/> <text xml:space="preserve" text-anchor="middle" x="1259.99" y="-204.93" font-family="monospace" font-size="10.00">owns</text> </g> <!-- delta::delta_manager::DeltaManager::default --> <g id="node12" class="node"> <title>delta::delta_manager::DeltaManager::default</title> <polygon fill="#db5367" stroke="black" points="1001.51,-96.39 1001.51,-140.89 1275.51,-140.89 1275.51,-96.39 1001.51,-96.39"/> <text xml:space="preserve" text-anchor="middle" x="1138.51" y="-127.39" font-family="monospace" font-size="10.00">pub(self) fn</text> <polyline fill="none" stroke="black" points="1001.51,-118.64 1275.51,-118.64"/> <text xml:space="preserve" text-anchor="middle" x="1138.51" y="-105.14" font-family="monospace" font-size="10.00">delta::delta_manager::DeltaManager::default</text> </g> <!-- delta::delta_manager::DeltaManager&#45;&gt;delta::delta_manager::DeltaManager::default --> <g id="edge15" class="edge"> <title>delta::delta_manager::DeltaManager&#45;&gt;delta::delta_manager::DeltaManager::default</title> <path fill="none" stroke="#000000" d="M1270.55,-301.1C1244,-264.41 1191.64,-192.07 1161.45,-150.34"/> <polygon fill="#000000" stroke="#000000" points="1164.4,-148.45 1155.7,-142.4 1158.73,-152.56 1164.4,-148.45"/> <text xml:space="preserve" text-anchor="middle" x="1204" y="-230.47" font-family="monospace" font-size="10.00">owns</text> </g> <!-- delta::delta_manager::DeltaManager::do_with --> <g id="node13" class="node"> <title>delta::delta_manager::DeltaManager::do_with</title> <polygon fill="#81c169" stroke="black" points="1367.33,-189.17 1367.33,-233.67 1641.33,-233.67 1641.33,-189.17 1367.33,-189.17"/> <text xml:space="preserve" text-anchor="middle" x="1504.33" y="-220.17" font-family="monospace" font-size="10.00">pub fn</text> <polyline fill="none" stroke="black" points="1367.33,-211.42 1641.33,-211.42"/> <text xml:space="preserve" text-anchor="middle" x="1504.33" y="-197.92" font-family="monospace" font-size="10.00">delta::delta_manager::DeltaManager::do_with</text> </g> <!-- delta::delta_manager::DeltaManager&#45;&gt;delta::delta_manager::DeltaManager::do_with --> <g id="edge16" class="edge"> <title>delta::delta_manager::DeltaManager&#45;&gt;delta::delta_manager::DeltaManager::do_with</title> <path fill="none" stroke="#000000" d="M1330.73,-301.23C1365.28,-283.36 1413.68,-258.32 1450.6,-239.22"/> <polygon fill="#000000" stroke="#000000" points="1452.07,-242.4 1459.34,-234.7 1448.85,-236.19 1452.07,-242.4"/> <text xml:space="preserve" text-anchor="middle" x="1378.66" y="-274.98" font-family="monospace" font-size="10.00">owns</text> </g> <!-- delta::delta_manager::DeltaManager::insert --> <g id="node14" class="node"> <title>delta::delta_manager::DeltaManager::insert</title> <polygon fill="#81c169" stroke="black" points="1428.06,-310.85 1428.06,-355.35 1696.06,-355.35 1696.06,-310.85 1428.06,-310.85"/> <text xml:space="preserve" text-anchor="middle" x="1562.06" y="-341.85" font-family="monospace" font-size="10.00">pub fn</text> <polyline fill="none" stroke="black" points="1428.06,-333.1 1696.06,-333.1"/> <text xml:space="preserve" text-anchor="middle" x="1562.06" y="-319.6" font-family="monospace" font-size="10.00">delta::delta_manager::DeltaManager::insert</text> </g> <!-- delta::delta_manager::DeltaManager&#45;&gt;delta::delta_manager::DeltaManager::insert --> <g id="edge17" class="edge"> <title>delta::delta_manager::DeltaManager&#45;&gt;delta::delta_manager::DeltaManager::insert</title> <path fill="none" stroke="#000000" d="M1397.3,-327.56C1403.56,-327.77 1409.89,-327.98 1416.25,-328.2"/> <polygon fill="#000000" stroke="#000000" points="1416.09,-331.69 1426.2,-328.53 1416.33,-324.7 1416.09,-331.69"/> <text xml:space="preserve" text-anchor="middle" x="1394.78" y="-332.63" font-family="monospace" font-size="10.00">owns</text> </g> <!-- delta::delta_manager::DeltaManager::redo --> <g id="node15" class="node"> <title>delta::delta_manager::DeltaManager::redo</title> <polygon fill="#81c169" stroke="black" points="1380.93,-414.69 1380.93,-459.19 1636.93,-459.19 1636.93,-414.69 1380.93,-414.69"/> <text xml:space="preserve" text-anchor="middle" x="1508.93" y="-445.69" font-family="monospace" font-size="10.00">pub fn</text> <polyline fill="none" stroke="black" points="1380.93,-436.94 1636.93,-436.94"/> <text xml:space="preserve" text-anchor="middle" x="1508.93" y="-423.44" font-family="monospace" font-size="10.00">delta::delta_manager::DeltaManager::redo</text> </g> <!-- delta::delta_manager::DeltaManager&#45;&gt;delta::delta_manager::DeltaManager::redo --> <g id="edge18" class="edge"> <title>delta::delta_manager::DeltaManager&#45;&gt;delta::delta_manager::DeltaManager::redo</title> <path fill="none" stroke="#000000" d="M1331.65,-346.6C1367.09,-364.66 1416.78,-389.98 1454.54,-409.22"/> <polygon fill="#000000" stroke="#000000" points="1452.52,-412.12 1463.01,-413.54 1455.69,-405.88 1452.52,-412.12"/> <text xml:space="preserve" text-anchor="middle" x="1381.1" y="-382.66" font-family="monospace" font-size="10.00">owns</text> </g> <!-- delta::delta_manager::DeltaManager::undo --> <g id="node16" class="node"> <title>delta::delta_manager::DeltaManager::undo</title> <polygon fill="#81c169" stroke="black" points="1283.59,-96.45 1283.59,-140.95 1539.59,-140.95 1539.59,-96.45 1283.59,-96.45"/> <text xml:space="preserve" text-anchor="middle" x="1411.59" y="-127.45" font-family="monospace" font-size="10.00">pub fn</text> <polyline fill="none" stroke="black" points="1283.59,-118.7 1539.59,-118.7"/> <text xml:space="preserve" text-anchor="middle" x="1411.59" y="-105.2" font-family="monospace" font-size="10.00">delta::delta_manager::DeltaManager::undo</text> </g> <!-- delta::delta_manager::DeltaManager&#45;&gt;delta::delta_manager::DeltaManager::undo --> <g id="edge19" class="edge"> <title>delta::delta_manager::DeltaManager&#45;&gt;delta::delta_manager::DeltaManager::undo</title> <path fill="none" stroke="#000000" d="M1300.82,-301.11C1323,-264.58 1366.64,-192.71 1392.02,-150.91"/> <polygon fill="#000000" stroke="#000000" points="1394.92,-152.88 1397.12,-142.52 1388.94,-149.25 1394.92,-152.88"/> <text xml:space="preserve" text-anchor="middle" x="1334.42" y="-230.76" font-family="monospace" font-size="10.00">owns</text> </g> <!-- delta::hasher::hash_one --> <g id="node18" class="node"> <title>delta::hasher::hash_one</title> <polygon fill="#81c169" stroke="black" points="434.6,-528.53 434.6,-573.03 588.6,-573.03 588.6,-528.53 434.6,-528.53"/> <text xml:space="preserve" text-anchor="middle" x="511.6" y="-559.53" font-family="monospace" font-size="10.00">pub fn</text> <polyline fill="none" stroke="black" points="434.6,-550.78 588.6,-550.78"/> <text xml:space="preserve" text-anchor="middle" x="511.6" y="-537.28" font-family="monospace" font-size="10.00">delta::hasher::hash_one</text> </g> <!-- delta::hasher&#45;&gt;delta::hasher::hash_one --> <g id="edge20" class="edge"> <title>delta::hasher&#45;&gt;delta::hasher::hash_one</title> <path fill="none" stroke="#000000" d="M703.61,-623.33C668.92,-610.22 621.24,-592.21 582.07,-577.41"/> <polygon fill="#000000" stroke="#000000" points="583.54,-574.22 572.95,-573.96 581.06,-580.77 583.54,-574.22"/> <text xml:space="preserve" text-anchor="middle" x="630.84" y="-605.12" font-family="monospace" font-size="10.00">owns</text> </g> <!-- delta::present::Diff --> <g id="node21" class="node"> <title>delta::present::Diff</title> <polygon fill="#81c169" stroke="black" points="1207.96,-732.46 1207.96,-776.96 1343.96,-776.96 1343.96,-732.46 1207.96,-732.46"/> <text xml:space="preserve" text-anchor="middle" x="1275.96" y="-763.46" font-family="monospace" font-size="10.00">pub type</text> <polyline fill="none" stroke="black" points="1207.96,-754.71 1343.96,-754.71"/> <text xml:space="preserve" text-anchor="middle" x="1275.96" y="-741.21" font-family="monospace" font-size="10.00">delta::present::Diff</text> </g> <!-- delta::present&#45;&gt;delta::present::Diff --> <g id="edge21" class="edge"> <title>delta::present&#45;&gt;delta::present::Diff</title> <path fill="none" stroke="#000000" d="M1156.71,-870.47C1180.61,-847.27 1218.02,-810.95 1244.56,-785.19"/> <polygon fill="#000000" stroke="#000000" points="1246.94,-787.76 1251.68,-778.28 1242.07,-782.73 1246.94,-787.76"/> <text xml:space="preserve" text-anchor="middle" x="1188.64" y="-832.58" font-family="monospace" font-size="10.00">owns</text> </g> <!-- delta::present::DiffAction --> <g id="node22" class="node"> <title>delta::present::DiffAction</title> <polygon fill="#81c169" stroke="black" points="1297.7,-1074.03 1297.7,-1118.53 1469.7,-1118.53 1469.7,-1074.03 1297.7,-1074.03"/> <text xml:space="preserve" text-anchor="middle" x="1383.7" y="-1105.03" font-family="monospace" font-size="10.00">pub enum</text> <polyline fill="none" stroke="black" points="1297.7,-1096.28 1469.7,-1096.28"/> <text xml:space="preserve" text-anchor="middle" x="1383.7" y="-1082.78" font-family="monospace" font-size="10.00">delta::present::DiffAction</text> </g> <!-- delta::present&#45;&gt;delta::present::DiffAction --> <g id="edge22" class="edge"> <title>delta::present&#45;&gt;delta::present::DiffAction</title> <path fill="none" stroke="#000000" d="M1161.24,-915.53C1206.61,-952.39 1296.69,-1025.58 1347.19,-1066.62"/> <polygon fill="#000000" stroke="#000000" points="1344.7,-1069.11 1354.67,-1072.7 1349.12,-1063.67 1344.7,-1069.11"/> <text xml:space="preserve" text-anchor="middle" x="1242.22" y="-995.83" font-family="monospace" font-size="10.00">owns</text> </g> <!-- delta::present::Present --> <g id="node25" class="node"> <title>delta::present::Present</title> <polygon fill="#81c169" stroke="black" points="1126.79,-1105.71 1126.79,-1150.21 1280.79,-1150.21 1280.79,-1105.71 1126.79,-1105.71"/> <text xml:space="preserve" text-anchor="middle" x="1203.79" y="-1136.71" font-family="monospace" font-size="10.00">pub enum</text> <polyline fill="none" stroke="black" points="1126.79,-1127.96 1280.79,-1127.96"/> <text xml:space="preserve" text-anchor="middle" x="1203.79" y="-1114.46" font-family="monospace" font-size="10.00">delta::present::Present</text> </g> <!-- delta::present&#45;&gt;delta::present::Present --> <g id="edge23" class="edge"> <title>delta::present&#45;&gt;delta::present::Present</title> <path fill="none" stroke="#000000" d="M1140.24,-915.53C1152.68,-957.1 1179.29,-1046.07 1193.82,-1094.64"/> <polygon fill="#000000" stroke="#000000" points="1190.42,-1095.47 1196.64,-1104.05 1197.12,-1093.46 1190.42,-1095.47"/> <text xml:space="preserve" text-anchor="middle" x="1155.03" y="-1009.83" font-family="monospace" font-size="10.00">owns</text> </g> <!-- delta::present::added --> <g id="node26" class="node"> <title>delta::present::added</title> <polygon fill="#81c169" stroke="black" points="1316.72,-806.29 1316.72,-850.79 1458.72,-850.79 1458.72,-806.29 1316.72,-806.29"/> <text xml:space="preserve" text-anchor="middle" x="1387.72" y="-837.29" font-family="monospace" font-size="10.00">pub fn</text> <polyline fill="none" stroke="black" points="1316.72,-828.54 1458.72,-828.54"/> <text xml:space="preserve" text-anchor="middle" x="1387.72" y="-815.04" font-family="monospace" font-size="10.00">delta::present::added</text> </g> <!-- delta::present&#45;&gt;delta::present::added --> <g id="edge24" class="edge"> <title>delta::present&#45;&gt;delta::present::added</title> <path fill="none" stroke="#000000" d="M1183.73,-880.26C1218.38,-871.48 1265.25,-859.6 1305.32,-849.44"/> <polygon fill="#000000" stroke="#000000" points="1306.12,-852.84 1314.96,-846.99 1304.4,-846.06 1306.12,-852.84"/> <text xml:space="preserve" text-anchor="middle" x="1232.52" y="-869.6" font-family="monospace" font-size="10.00">owns</text> </g> <!-- delta::present::changed --> <g id="node27" class="node"> <title>delta::present::changed</title> <polygon fill="#81c169" stroke="black" points="1259.68,-926.38 1259.68,-970.88 1413.68,-970.88 1413.68,-926.38 1259.68,-926.38"/> <text xml:space="preserve" text-anchor="middle" x="1336.68" y="-957.38" font-family="monospace" font-size="10.00">pub fn</text> <polyline fill="none" stroke="black" points="1259.68,-948.63 1413.68,-948.63"/> <text xml:space="preserve" text-anchor="middle" x="1336.68" y="-935.13" font-family="monospace" font-size="10.00">delta::present::changed</text> </g> <!-- delta::present&#45;&gt;delta::present::changed --> <g id="edge25" class="edge"> <title>delta::present&#45;&gt;delta::present::changed</title> <path fill="none" stroke="#000000" d="M1183.99,-906.82C1203.49,-912.16 1226.4,-918.44 1248.44,-924.47"/> <polygon fill="#000000" stroke="#000000" points="1247.5,-927.84 1258.07,-927.11 1249.35,-921.09 1247.5,-927.84"/> <text xml:space="preserve" text-anchor="middle" x="1204.22" y="-920.4" font-family="monospace" font-size="10.00">owns</text> </g> <!-- delta::present::removed --> <g id="node28" class="node"> <title>delta::present::removed</title> <polygon fill="#81c169" stroke="black" points="964.69,-1053.31 964.69,-1097.81 1118.69,-1097.81 1118.69,-1053.31 964.69,-1053.31"/> <text xml:space="preserve" text-anchor="middle" x="1041.69" y="-1084.31" font-family="monospace" font-size="10.00">pub fn</text> <polyline fill="none" stroke="black" points="964.69,-1075.56 1118.69,-1075.56"/> <text xml:space="preserve" text-anchor="middle" x="1041.69" y="-1062.06" font-family="monospace" font-size="10.00">delta::present::removed</text> </g> <!-- delta::present&#45;&gt;delta::present::removed --> <g id="edge26" class="edge"> <title>delta::present&#45;&gt;delta::present::removed</title> <path fill="none" stroke="#000000" d="M1122.25,-915.38C1106.21,-947.27 1076.68,-1005.99 1058.18,-1042.78"/> <polygon fill="#000000" stroke="#000000" points="1055.09,-1041.13 1053.72,-1051.64 1061.34,-1044.27 1055.09,-1041.13"/> <text xml:space="preserve" text-anchor="middle" x="1078.21" y="-983.83" font-family="monospace" font-size="10.00">owns</text> </g> <!-- delta::present::DiffAction::for_apply --> <g id="node23" class="node"> <title>delta::present::DiffAction::for_apply</title> <polygon fill="#81c169" stroke="black" points="1371.21,-1299.49 1371.21,-1343.99 1609.21,-1343.99 1609.21,-1299.49 1371.21,-1299.49"/> <text xml:space="preserve" text-anchor="middle" x="1490.21" y="-1330.49" font-family="monospace" font-size="10.00">pub fn</text> <polyline fill="none" stroke="black" points="1371.21,-1321.74 1609.21,-1321.74"/> <text xml:space="preserve" text-anchor="middle" x="1490.21" y="-1308.24" font-family="monospace" font-size="10.00">delta::present::DiffAction::for_apply</text> </g> <!-- delta::present::DiffAction&#45;&gt;delta::present::DiffAction::for_apply --> <g id="edge27" class="edge"> <title>delta::present::DiffAction&#45;&gt;delta::present::DiffAction::for_apply</title> <path fill="none" stroke="#000000" d="M1394.3,-1118.72C1413.19,-1158.71 1452.75,-1242.45 1474.7,-1288.92"/> <polygon fill="#000000" stroke="#000000" points="1471.41,-1290.14 1478.85,-1297.69 1477.74,-1287.15 1471.41,-1290.14"/> <text xml:space="preserve" text-anchor="middle" x="1422.5" y="-1208.57" font-family="monospace" font-size="10.00">owns</text> </g> <!-- delta::present::DiffAction::for_rewind --> <g id="node24" class="node"> <title>delta::present::DiffAction::for_rewind</title> <polygon fill="#81c169" stroke="black" points="1509.28,-1102.29 1509.28,-1146.79 1753.28,-1146.79 1753.28,-1102.29 1509.28,-1102.29"/> <text xml:space="preserve" text-anchor="middle" x="1631.28" y="-1133.29" font-family="monospace" font-size="10.00">pub fn</text> <polyline fill="none" stroke="black" points="1509.28,-1124.54 1753.28,-1124.54"/> <text xml:space="preserve" text-anchor="middle" x="1631.28" y="-1111.04" font-family="monospace" font-size="10.00">delta::present::DiffAction::for_rewind</text> </g> <!-- delta::present::DiffAction&#45;&gt;delta::present::DiffAction::for_rewind --> <g id="edge28" class="edge"> <title>delta::present::DiffAction&#45;&gt;delta::present::DiffAction::for_rewind</title> <path fill="none" stroke="#000000" d="M1469.94,-1106.13C1479.07,-1107.17 1488.5,-1108.25 1498,-1109.33"/> <polygon fill="#000000" stroke="#000000" points="1497.34,-1112.78 1507.68,-1110.43 1498.14,-1105.82 1497.34,-1112.78"/> <text xml:space="preserve" text-anchor="middle" x="1471.97" y="-1112.48" font-family="monospace" font-size="10.00">owns</text> </g> <!-- delta::ring_buffer::StaticRingBuffer --> <g id="node30" class="node"> <title>delta::ring_buffer::StaticRingBuffer</title> <polygon fill="#81c169" stroke="black" points="405.88,-1126.77 405.88,-1171.27 637.88,-1171.27 637.88,-1126.77 405.88,-1126.77"/> <text xml:space="preserve" text-anchor="middle" x="521.88" y="-1157.77" font-family="monospace" font-size="10.00">pub struct</text> <polyline fill="none" stroke="black" points="405.88,-1149.02 637.88,-1149.02"/> <text xml:space="preserve" text-anchor="middle" x="521.88" y="-1135.52" font-family="monospace" font-size="10.00">delta::ring_buffer::StaticRingBuffer</text> </g> <!-- delta::ring_buffer&#45;&gt;delta::ring_buffer::StaticRingBuffer --> <g id="edge29" class="edge"> <title>delta::ring_buffer&#45;&gt;delta::ring_buffer::StaticRingBuffer</title> <path fill="none" stroke="#000000" d="M712.46,-962.97C673.89,-1000.62 596.73,-1075.95 553.35,-1118.3"/> <polygon fill="#000000" stroke="#000000" points="550.94,-1115.76 546.23,-1125.25 555.83,-1120.77 550.94,-1115.76"/> <text xml:space="preserve" text-anchor="middle" x="620.91" y="-1045.39" font-family="monospace" font-size="10.00">owns</text> </g> <!-- delta::ring_buffer::StaticRingBuffer::backward --> <g id="node31" class="node"> <title>delta::ring_buffer::StaticRingBuffer::backward</title> <polygon fill="#81c169" stroke="black" points="374.74,-1366.62 374.74,-1411.12 666.74,-1411.12 666.74,-1366.62 374.74,-1366.62"/> <text xml:space="preserve" text-anchor="middle" x="520.74" y="-1397.62" font-family="monospace" font-size="10.00">pub fn</text> <polyline fill="none" stroke="black" points="374.74,-1388.87 666.74,-1388.87"/> <text xml:space="preserve" text-anchor="middle" x="520.74" y="-1375.37" font-family="monospace" font-size="10.00">delta::ring_buffer::StaticRingBuffer::backward</text> </g> <!-- delta::ring_buffer::StaticRingBuffer&#45;&gt;delta::ring_buffer::StaticRingBuffer::backward --> <g id="edge30" class="edge"> <title>delta::ring_buffer::StaticRingBuffer&#45;&gt;delta::ring_buffer::StaticRingBuffer::backward</title> <path fill="none" stroke="#000000" d="M521.77,-1171.59C521.57,-1213.82 521.14,-1305.01 520.9,-1354.78"/> <polygon fill="#000000" stroke="#000000" points="517.4,-1354.66 520.85,-1364.68 524.4,-1354.7 517.4,-1354.66"/> <text xml:space="preserve" text-anchor="middle" x="509.34" y="-1267.93" font-family="monospace" font-size="10.00">owns</text> </g> <!-- delta::ring_buffer::StaticRingBuffer::backward_get --> <g id="node32" class="node"> <title>delta::ring_buffer::StaticRingBuffer::backward_get</title> <polygon fill="#81c169" stroke="black" points="606.85,-1205.06 606.85,-1249.56 922.85,-1249.56 922.85,-1205.06 606.85,-1205.06"/> <text xml:space="preserve" text-anchor="middle" x="764.85" y="-1236.06" font-family="monospace" font-size="10.00">pub fn</text> <polyline fill="none" stroke="black" points="606.85,-1227.31 922.85,-1227.31"/> <text xml:space="preserve" text-anchor="middle" x="764.85" y="-1213.81" font-family="monospace" font-size="10.00">delta::ring_buffer::StaticRingBuffer::backward_get</text> </g> <!-- delta::ring_buffer::StaticRingBuffer&#45;&gt;delta::ring_buffer::StaticRingBuffer::backward_get --> <g id="edge31" class="edge"> <title>delta::ring_buffer::StaticRingBuffer&#45;&gt;delta::ring_buffer::StaticRingBuffer::backward_get</title> <path fill="none" stroke="#000000" d="M592.16,-1171.67C620.74,-1180.88 653.95,-1191.58 683.57,-1201.12"/> <polygon fill="#000000" stroke="#000000" points="682.28,-1204.38 692.87,-1204.12 684.42,-1197.72 682.28,-1204.38"/> <text xml:space="preserve" text-anchor="middle" x="625.87" y="-1191.14" font-family="monospace" font-size="10.00">owns</text> </g> <!-- delta::ring_buffer::StaticRingBuffer::backward_mut --> <g id="node33" class="node"> <title>delta::ring_buffer::StaticRingBuffer::backward_mut</title> <polygon fill="#81c169" stroke="black" points="126.75,-932.65 126.75,-977.15 442.75,-977.15 442.75,-932.65 126.75,-932.65"/> <text xml:space="preserve" text-anchor="middle" x="284.75" y="-963.65" font-family="monospace" font-size="10.00">pub fn</text> <polyline fill="none" stroke="black" points="126.75,-954.9 442.75,-954.9"/> <text xml:space="preserve" text-anchor="middle" x="284.75" y="-941.4" font-family="monospace" font-size="10.00">delta::ring_buffer::StaticRingBuffer::backward_mut</text> </g> <!-- delta::ring_buffer::StaticRingBuffer&#45;&gt;delta::ring_buffer::StaticRingBuffer::backward_mut --> <g id="edge32" class="edge"> <title>delta::ring_buffer::StaticRingBuffer&#45;&gt;delta::ring_buffer::StaticRingBuffer::backward_mut</title> <path fill="none" stroke="#000000" d="M494.21,-1126.37C451.29,-1091.23 368.64,-1023.57 321,-984.57"/> <polygon fill="#000000" stroke="#000000" points="323.37,-981.99 313.41,-978.36 318.93,-987.41 323.37,-981.99"/> <text xml:space="preserve" text-anchor="middle" x="395.6" y="-1060.22" font-family="monospace" font-size="10.00">owns</text> </g> <!-- delta::ring_buffer::StaticRingBuffer::default --> <g id="node34" class="node"> <title>delta::ring_buffer::StaticRingBuffer::default</title> <polygon fill="#db5367" stroke="black" points="0,-1208.32 0,-1252.82 286,-1252.82 286,-1208.32 0,-1208.32"/> <text xml:space="preserve" text-anchor="middle" x="143" y="-1239.32" font-family="monospace" font-size="10.00">pub(self) fn</text> <polyline fill="none" stroke="black" points="0,-1230.57 286,-1230.57"/> <text xml:space="preserve" text-anchor="middle" x="143" y="-1217.07" font-family="monospace" font-size="10.00">delta::ring_buffer::StaticRingBuffer::default</text> </g> <!-- delta::ring_buffer::StaticRingBuffer&#45;&gt;delta::ring_buffer::StaticRingBuffer::default --> <g id="edge33" class="edge"> <title>delta::ring_buffer::StaticRingBuffer&#45;&gt;delta::ring_buffer::StaticRingBuffer::default</title> <path fill="none" stroke="#000000" d="M416.34,-1171.74C367.69,-1182.21 309.78,-1194.67 259.82,-1205.42"/> <polygon fill="#000000" stroke="#000000" points="259.15,-1201.99 250.11,-1207.51 260.62,-1208.83 259.15,-1201.99"/> <text xml:space="preserve" text-anchor="middle" x="326.08" y="-1193.33" font-family="monospace" font-size="10.00">owns</text> </g> <!-- delta::ring_buffer::StaticRingBuffer::forward --> <g id="node35" class="node"> <title>delta::ring_buffer::StaticRingBuffer::forward</title> <polygon fill="#81c169" stroke="black" points="696.96,-1319.04 696.96,-1363.54 982.96,-1363.54 982.96,-1319.04 696.96,-1319.04"/> <text xml:space="preserve" text-anchor="middle" x="839.96" y="-1350.04" font-family="monospace" font-size="10.00">pub fn</text> <polyline fill="none" stroke="black" points="696.96,-1341.29 982.96,-1341.29"/> <text xml:space="preserve" text-anchor="middle" x="839.96" y="-1327.79" font-family="monospace" font-size="10.00">delta::ring_buffer::StaticRingBuffer::forward</text> </g> <!-- delta::ring_buffer::StaticRingBuffer&#45;&gt;delta::ring_buffer::StaticRingBuffer::forward --> <g id="edge34" class="edge"> <title>delta::ring_buffer::StaticRingBuffer&#45;&gt;delta::ring_buffer::StaticRingBuffer::forward</title> <path fill="none" stroke="#000000" d="M559.3,-1171.64C617.45,-1206.79 729.38,-1274.45 792.91,-1312.85"/> <polygon fill="#000000" stroke="#000000" points="791.01,-1315.79 801.38,-1317.97 794.63,-1309.8 791.01,-1315.79"/> <text xml:space="preserve" text-anchor="middle" x="664.11" y="-1247" font-family="monospace" font-size="10.00">owns</text> </g> <!-- delta::ring_buffer::StaticRingBuffer::forward_get --> <g id="node36" class="node"> <title>delta::ring_buffer::StaticRingBuffer::forward_get</title> <polygon fill="#81c169" stroke="black" points="332.09,-986.53 332.09,-1031.03 642.09,-1031.03 642.09,-986.53 332.09,-986.53"/> <text xml:space="preserve" text-anchor="middle" x="487.09" y="-1017.53" font-family="monospace" font-size="10.00">pub fn</text> <polyline fill="none" stroke="black" points="332.09,-1008.78 642.09,-1008.78"/> <text xml:space="preserve" text-anchor="middle" x="487.09" y="-995.28" font-family="monospace" font-size="10.00">delta::ring_buffer::StaticRingBuffer::forward_get</text> </g> <!-- delta::ring_buffer::StaticRingBuffer&#45;&gt;delta::ring_buffer::StaticRingBuffer::forward_get --> <g id="edge35" class="edge"> <title>delta::ring_buffer::StaticRingBuffer&#45;&gt;delta::ring_buffer::StaticRingBuffer::forward_get</title> <path fill="none" stroke="#000000" d="M516.29,-1126.49C510.63,-1103.69 501.82,-1068.19 495.36,-1042.14"/> <polygon fill="#000000" stroke="#000000" points="498.83,-1041.59 493.03,-1032.73 492.04,-1043.28 498.83,-1041.59"/> <text xml:space="preserve" text-anchor="middle" x="493.82" y="-1089.06" font-family="monospace" font-size="10.00">owns</text> </g> <!-- delta::ring_buffer::StaticRingBuffer::forward_mut --> <g id="node37" class="node"> <title>delta::ring_buffer::StaticRingBuffer::forward_mut</title> <polygon fill="#81c169" stroke="black" points="148.55,-1261.84 148.55,-1306.34 458.55,-1306.34 458.55,-1261.84 148.55,-1261.84"/> <text xml:space="preserve" text-anchor="middle" x="303.55" y="-1292.84" font-family="monospace" font-size="10.00">pub fn</text> <polyline fill="none" stroke="black" points="148.55,-1284.09 458.55,-1284.09"/> <text xml:space="preserve" text-anchor="middle" x="303.55" y="-1270.59" font-family="monospace" font-size="10.00">delta::ring_buffer::StaticRingBuffer::forward_mut</text> </g> <!-- delta::ring_buffer::StaticRingBuffer&#45;&gt;delta::ring_buffer::StaticRingBuffer::forward_mut --> <g id="edge36" class="edge"> <title>delta::ring_buffer::StaticRingBuffer&#45;&gt;delta::ring_buffer::StaticRingBuffer::forward_mut</title> <path fill="none" stroke="#000000" d="M485.34,-1171.63C448.1,-1194.66 390.25,-1230.46 349.84,-1255.46"/> <polygon fill="#000000" stroke="#000000" points="348.17,-1252.37 341.5,-1260.61 351.85,-1258.33 348.17,-1252.37"/> <text xml:space="preserve" text-anchor="middle" x="405.59" y="-1218.29" font-family="monospace" font-size="10.00">owns</text> </g> <!-- delta::ring_buffer::StaticRingBuffer::get --> <g id="node38" class="node"> <title>delta::ring_buffer::StaticRingBuffer::get</title> <polygon fill="#81c169" stroke="black" points="674.98,-1394.95 674.98,-1439.45 936.98,-1439.45 936.98,-1394.95 674.98,-1394.95"/> <text xml:space="preserve" text-anchor="middle" x="805.98" y="-1425.95" font-family="monospace" font-size="10.00">pub fn</text> <polyline fill="none" stroke="black" points="674.98,-1417.2 936.98,-1417.2"/> <text xml:space="preserve" text-anchor="middle" x="805.98" y="-1403.7" font-family="monospace" font-size="10.00">delta::ring_buffer::StaticRingBuffer::get</text> </g> <!-- delta::ring_buffer::StaticRingBuffer&#45;&gt;delta::ring_buffer::StaticRingBuffer::get --> <g id="edge37" class="edge"> <title>delta::ring_buffer::StaticRingBuffer&#45;&gt;delta::ring_buffer::StaticRingBuffer::get</title> <path fill="none" stroke="#000000" d="M545.61,-1171.42C596.58,-1219.54 716.55,-1332.78 774.09,-1387.1"/> <polygon fill="#000000" stroke="#000000" points="771.34,-1389.31 781.02,-1393.63 776.15,-1384.22 771.34,-1389.31"/> <text xml:space="preserve" text-anchor="middle" x="647.85" y="-1284.01" font-family="monospace" font-size="10.00">owns</text> </g> <!-- delta::ring_buffer::StaticRingBuffer::get_mut --> <g id="node39" class="node"> <title>delta::ring_buffer::StaticRingBuffer::get_mut</title> <polygon fill="#81c169" stroke="black" points="54.68,-1105.75 54.68,-1150.25 340.68,-1150.25 340.68,-1105.75 54.68,-1105.75"/> <text xml:space="preserve" text-anchor="middle" x="197.68" y="-1136.75" font-family="monospace" font-size="10.00">pub fn</text> <polyline fill="none" stroke="black" points="54.68,-1128 340.68,-1128"/> <text xml:space="preserve" text-anchor="middle" x="197.68" y="-1114.5" font-family="monospace" font-size="10.00">delta::ring_buffer::StaticRingBuffer::get_mut</text> </g> <!-- delta::ring_buffer::StaticRingBuffer&#45;&gt;delta::ring_buffer::StaticRingBuffer::get_mut --> <g id="edge38" class="edge"> <title>delta::ring_buffer::StaticRingBuffer&#45;&gt;delta::ring_buffer::StaticRingBuffer::get_mut</title> <path fill="none" stroke="#000000" d="M405.75,-1141.49C388.45,-1140.37 370.4,-1139.2 352.46,-1138.03"/> <polygon fill="#000000" stroke="#000000" points="352.72,-1134.54 342.52,-1137.39 352.27,-1141.53 352.72,-1134.54"/> <text xml:space="preserve" text-anchor="middle" x="367.1" y="-1144.51" font-family="monospace" font-size="10.00">owns</text> </g> <!-- delta::ring_buffer::StaticRingBuffer::insert --> <g id="node40" class="node"> <title>delta::ring_buffer::StaticRingBuffer::insert</title> <polygon fill="#81c169" stroke="black" points="43.85,-997.18 43.85,-1041.68 323.85,-1041.68 323.85,-997.18 43.85,-997.18"/> <text xml:space="preserve" text-anchor="middle" x="183.85" y="-1028.18" font-family="monospace" font-size="10.00">pub fn</text> <polyline fill="none" stroke="black" points="43.85,-1019.43 323.85,-1019.43"/> <text xml:space="preserve" text-anchor="middle" x="183.85" y="-1005.93" font-family="monospace" font-size="10.00">delta::ring_buffer::StaticRingBuffer::insert</text> </g> <!-- delta::ring_buffer::StaticRingBuffer&#45;&gt;delta::ring_buffer::StaticRingBuffer::insert --> <g id="edge39" class="edge"> <title>delta::ring_buffer::StaticRingBuffer&#45;&gt;delta::ring_buffer::StaticRingBuffer::insert</title> <path fill="none" stroke="#000000" d="M462.61,-1126.3C404.26,-1103.93 315.16,-1069.77 253.47,-1046.12"/> <polygon fill="#000000" stroke="#000000" points="255.06,-1042.98 244.46,-1042.67 252.55,-1049.52 255.06,-1042.98"/> <text xml:space="preserve" text-anchor="middle" x="346.04" y="-1090.96" font-family="monospace" font-size="10.00">owns</text> </g> <!-- delta::ring_buffer::StaticRingBuffer::reset_head --> <g id="node41" class="node"> <title>delta::ring_buffer::StaticRingBuffer::reset_head</title> <polygon fill="#81c169" stroke="black" points="60.8,-1352.88 60.8,-1397.38 364.8,-1397.38 364.8,-1352.88 60.8,-1352.88"/> <text xml:space="preserve" text-anchor="middle" x="212.8" y="-1383.88" font-family="monospace" font-size="10.00">pub fn</text> <polyline fill="none" stroke="black" points="60.8,-1375.13 364.8,-1375.13"/> <text xml:space="preserve" text-anchor="middle" x="212.8" y="-1361.63" font-family="monospace" font-size="10.00">delta::ring_buffer::StaticRingBuffer::reset_head</text> </g> <!-- delta::ring_buffer::StaticRingBuffer&#45;&gt;delta::ring_buffer::StaticRingBuffer::reset_head --> <g id="edge40" class="edge"> <title>delta::ring_buffer::StaticRingBuffer&#45;&gt;delta::ring_buffer::StaticRingBuffer::reset_head</title> <path fill="none" stroke="#000000" d="M490.83,-1171.74C434.48,-1212.96 315.44,-1300.04 252.99,-1345.73"/> <polygon fill="#000000" stroke="#000000" points="251.06,-1342.81 245.05,-1351.53 255.19,-1348.45 251.06,-1342.81"/> <text xml:space="preserve" text-anchor="middle" x="359.91" y="-1263.48" font-family="monospace" font-size="10.00">owns</text> </g> </g> </svg>
