<?xml version="1.0" encoding="UTF-8" standalone="no"?> <!DOCTYPE svg PUBLIC "-//W3C//DTD SVG 1.1//EN"  "http://www.w3.org/Graphics/SVG/1.1/DTD/svg11.dtd"> <!-- Generated by graphviz version 14.1.5 (0)  --> <!-- Pages: 1 --> <svg width="1174pt" height="1125pt"  viewBox="0.00 0.00 1174.00 1125.00" xmlns="http://www.w3.org/2000/svg" xmlns:xlink="http://www.w3.org/1999/xlink"> <g id="graph0" class="graph" transform="scale(1 1) rotate(0) translate(28.8 1095.97)"> <polygon fill="white" stroke="none" points="-28.8,28.8 -28.8,-1095.97 1145.66,-1095.97 1145.66,28.8 -28.8,28.8"/> <text xml:space="preserve" text-anchor="middle" x="558.43" y="-1028.97" font-family="Helvetica,sans-Serif" font-size="36.00">sbe_sis</text> <!-- sbe_sis --> <g id="node1" class="node"> <title>sbe_sis</title> <polygon fill="#5397c8" stroke="black" points="539.04,-487.88 539.04,-532.38 597.04,-532.38 597.04,-487.88 539.04,-487.88"/> <text xml:space="preserve" text-anchor="middle" x="568.04" y="-518.88" font-family="monospace" font-size="10.00">crate</text> <polyline fill="none" stroke="black" points="539.04,-510.13 597.04,-510.13"/> <text xml:space="preserve" text-anchor="middle" x="568.04" y="-496.63" font-family="monospace" font-size="10.00">sbe_sis</text> </g> <!-- sbe_sis::BufferWrapper --> <g id="node2" class="node"> <title>sbe_sis::BufferWrapper</title> <polygon fill="#f8c04c" stroke="black" points="838.32,-648.02 838.32,-692.52 986.32,-692.52 986.32,-648.02 838.32,-648.02"/> <text xml:space="preserve" text-anchor="middle" x="912.32" y="-679.02" font-family="monospace" font-size="10.00">pub(crate) struct</text> <polyline fill="none" stroke="black" points="838.32,-670.27 986.32,-670.27"/> <text xml:space="preserve" text-anchor="middle" x="912.32" y="-656.77" font-family="monospace" font-size="10.00">sbe_sis::BufferWrapper</text> </g> <!-- sbe_sis&#45;&gt;sbe_sis::BufferWrapper --> <g id="edge1" class="edge"> <title>sbe_sis&#45;&gt;sbe_sis::BufferWrapper</title> <path fill="none" stroke="#000000" d="M597.39,-523.79C653.92,-550.08 778.88,-608.2 853.27,-642.81"/> <polygon fill="#000000" stroke="#000000" points="851.51,-645.85 862.05,-646.89 854.46,-639.5 851.51,-645.85"/> <text xml:space="preserve" text-anchor="middle" x="713.33" y="-588.05" font-family="monospace" font-size="10.00">owns</text> </g> <!-- sbe_sis::SbeCallback --> <g id="node3" class="node"> <title>sbe_sis::SbeCallback</title> <polygon fill="#81c169" stroke="black" points="354.17,-0.5 354.17,-45 490.17,-45 490.17,-0.5 354.17,-0.5"/> <text xml:space="preserve" text-anchor="middle" x="422.17" y="-31.5" font-family="monospace" font-size="10.00">pub type</text> <polyline fill="none" stroke="black" points="354.17,-22.75 490.17,-22.75"/> <text xml:space="preserve" text-anchor="middle" x="422.17" y="-9.25" font-family="monospace" font-size="10.00">sbe_sis::SbeCallback</text> </g> <!-- sbe_sis&#45;&gt;sbe_sis::SbeCallback --> <g id="edge2" class="edge"> <title>sbe_sis&#45;&gt;sbe_sis::SbeCallback</title> <path fill="none" stroke="#000000" d="M561.29,-487.6C537.89,-409.42 460.1,-149.49 432.22,-56.33"/> <polygon fill="#000000" stroke="#000000" points="435.58,-55.35 429.36,-46.77 428.88,-57.35 435.58,-55.35"/> <text xml:space="preserve" text-anchor="middle" x="484.76" y="-276.72" font-family="monospace" font-size="10.00">owns</text> </g> <!-- sbe_sis::SbeJoinHandle --> <g id="node4" class="node"> <title>sbe_sis::SbeJoinHandle</title> <polygon fill="#81c169" stroke="black" points="298.68,-927.5 298.68,-972 446.68,-972 446.68,-927.5 298.68,-927.5"/> <text xml:space="preserve" text-anchor="middle" x="372.68" y="-958.5" font-family="monospace" font-size="10.00">pub type</text> <polyline fill="none" stroke="black" points="298.68,-949.75 446.68,-949.75"/> <text xml:space="preserve" text-anchor="middle" x="372.68" y="-936.25" font-family="monospace" font-size="10.00">sbe_sis::SbeJoinHandle</text> </g> <!-- sbe_sis&#45;&gt;sbe_sis::SbeJoinHandle --> <g id="edge3" class="edge"> <title>sbe_sis&#45;&gt;sbe_sis::SbeJoinHandle</title> <path fill="none" stroke="#000000" d="M557.95,-532.84C525.72,-605.36 425.2,-831.56 387.32,-916.81"/> <polygon fill="#000000" stroke="#000000" points="384.19,-915.24 383.33,-925.8 390.59,-918.08 384.19,-915.24"/> <text xml:space="preserve" text-anchor="middle" x="460.64" y="-729.58" font-family="monospace" font-size="10.00">owns</text> </g> <!-- sbe_sis::SbeMsg --> <g id="node5" class="node"> <title>sbe_sis::SbeMsg</title> <polygon fill="#f8c04c" stroke="black" points="644.66,-823.71 644.66,-868.21 750.66,-868.21 750.66,-823.71 644.66,-823.71"/> <text xml:space="preserve" text-anchor="middle" x="697.66" y="-854.71" font-family="monospace" font-size="10.00">pub(crate) enum</text> <polyline fill="none" stroke="black" points="644.66,-845.96 750.66,-845.96"/> <text xml:space="preserve" text-anchor="middle" x="697.66" y="-832.46" font-family="monospace" font-size="10.00">sbe_sis::SbeMsg</text> </g> <!-- sbe_sis&#45;&gt;sbe_sis::SbeMsg --> <g id="edge4" class="edge"> <title>sbe_sis&#45;&gt;sbe_sis::SbeMsg</title> <path fill="none" stroke="#000000" d="M576.74,-532.69C599.11,-590.64 658.67,-744.96 684.93,-812.97"/> <polygon fill="#000000" stroke="#000000" points="681.58,-814.02 688.44,-822.09 688.11,-811.5 681.58,-814.02"/> <text xml:space="preserve" text-anchor="middle" x="618.84" y="-677.58" font-family="monospace" font-size="10.00">owns</text> </g> <!-- sbe_sis::SbeResult --> <g id="node6" class="node"> <title>sbe_sis::SbeResult</title> <polygon fill="#81c169" stroke="black" points="261.29,-732.18 261.29,-776.68 385.29,-776.68 385.29,-732.18 261.29,-732.18"/> <text xml:space="preserve" text-anchor="middle" x="323.29" y="-763.18" font-family="monospace" font-size="10.00">pub enum</text> <polyline fill="none" stroke="black" points="261.29,-754.43 385.29,-754.43"/> <text xml:space="preserve" text-anchor="middle" x="323.29" y="-740.93" font-family="monospace" font-size="10.00">sbe_sis::SbeResult</text> </g> <!-- sbe_sis&#45;&gt;sbe_sis::SbeResult --> <g id="edge5" class="edge"> <title>sbe_sis&#45;&gt;sbe_sis::SbeResult</title> <path fill="none" stroke="#000000" d="M545.45,-532.68C501.29,-576.76 403.46,-674.41 353.67,-724.11"/> <polygon fill="#000000" stroke="#000000" points="351.5,-721.33 346.9,-730.87 356.45,-726.29 351.5,-721.33"/> <text xml:space="preserve" text-anchor="middle" x="437.56" y="-633.14" font-family="monospace" font-size="10.00">owns</text> </g> <!-- sbe_sis::SsmDataBuffer --> <g id="node7" class="node"> <title>sbe_sis::SsmDataBuffer</title> <polygon fill="#81c169" stroke="black" points="35.52,-269.59 35.52,-314.09 183.52,-314.09 183.52,-269.59 35.52,-269.59"/> <text xml:space="preserve" text-anchor="middle" x="109.52" y="-300.59" font-family="monospace" font-size="10.00">pub struct</text> <polyline fill="none" stroke="black" points="35.52,-291.84 183.52,-291.84"/> <text xml:space="preserve" text-anchor="middle" x="109.52" y="-278.34" font-family="monospace" font-size="10.00">sbe_sis::SsmDataBuffer</text> </g> <!-- sbe_sis&#45;&gt;sbe_sis::SsmDataBuffer --> <g id="edge6" class="edge"> <title>sbe_sis&#45;&gt;sbe_sis::SsmDataBuffer</title> <path fill="none" stroke="#000000" d="M538.66,-496.15C464.02,-460.61 266.02,-366.35 167.25,-319.32"/> <polygon fill="#000000" stroke="#000000" points="169.04,-316.3 158.51,-315.16 166.03,-322.62 169.04,-316.3"/> <text xml:space="preserve" text-anchor="middle" x="340.95" y="-412.48" font-family="monospace" font-size="10.00">owns</text> </g> <!-- sbe_sis::sbe_await_join --> <g id="node8" class="node"> <title>sbe_sis::sbe_await_join</title> <polygon fill="#81c169" stroke="black" points="944.89,-341.8 944.89,-386.3 1098.89,-386.3 1098.89,-341.8 944.89,-341.8"/> <text xml:space="preserve" text-anchor="middle" x="1021.89" y="-372.8" font-family="monospace" font-size="10.00">pub unsafe fn</text> <polyline fill="none" stroke="black" points="944.89,-364.05 1098.89,-364.05"/> <text xml:space="preserve" text-anchor="middle" x="1021.89" y="-350.55" font-family="monospace" font-size="10.00">sbe_sis::sbe_await_join</text> </g> <!-- sbe_sis&#45;&gt;sbe_sis::sbe_await_join --> <g id="edge7" class="edge"> <title>sbe_sis&#45;&gt;sbe_sis::sbe_await_join</title> <path fill="none" stroke="#000000" d="M597.47,-500.66C665.89,-478.64 837.64,-423.36 940.47,-390.26"/> <polygon fill="#000000" stroke="#000000" points="941.54,-393.59 949.98,-387.2 939.39,-386.93 941.54,-393.59"/> <text xml:space="preserve" text-anchor="middle" x="756.97" y="-450.21" font-family="monospace" font-size="10.00">owns</text> </g> <!-- sbe_sis::sbe_init --> <g id="node9" class="node"> <title>sbe_sis::sbe_init</title> <polygon fill="#81c169" stroke="black" points="199.46,-297.86 199.46,-342.36 317.46,-342.36 317.46,-297.86 199.46,-297.86"/> <text xml:space="preserve" text-anchor="middle" x="258.46" y="-328.86" font-family="monospace" font-size="10.00">pub unsafe fn</text> <polyline fill="none" stroke="black" points="199.46,-320.11 317.46,-320.11"/> <text xml:space="preserve" text-anchor="middle" x="258.46" y="-306.61" font-family="monospace" font-size="10.00">sbe_sis::sbe_init</text> </g> <!-- sbe_sis&#45;&gt;sbe_sis::sbe_init --> <g id="edge8" class="edge"> <title>sbe_sis&#45;&gt;sbe_sis::sbe_init</title> <path fill="none" stroke="#000000" d="M538.63,-492.08C484.66,-458.95 369.38,-388.19 304.78,-348.54"/> <polygon fill="#000000" stroke="#000000" points="306.89,-345.73 296.54,-343.48 303.23,-351.7 306.89,-345.73"/> <text xml:space="preserve" text-anchor="middle" x="409.71" y="-425.06" font-family="monospace" font-size="10.00">owns</text> </g> <!-- sbe_sis::sbe_open --> <g id="node10" class="node"> <title>sbe_sis::sbe_open</title> <polygon fill="#81c169" stroke="black" points="614.89,-25.39 614.89,-69.89 732.89,-69.89 732.89,-25.39 614.89,-25.39"/> <text xml:space="preserve" text-anchor="middle" x="673.89" y="-56.39" font-family="monospace" font-size="10.00">pub unsafe fn</text> <polyline fill="none" stroke="black" points="614.89,-47.64 732.89,-47.64"/> <text xml:space="preserve" text-anchor="middle" x="673.89" y="-34.14" font-family="monospace" font-size="10.00">sbe_sis::sbe_open</text> </g> <!-- sbe_sis&#45;&gt;sbe_sis::sbe_open --> <g id="edge9" class="edge"> <title>sbe_sis&#45;&gt;sbe_sis::sbe_open</title> <path fill="none" stroke="#000000" d="M573.21,-487.51C590.42,-412.36 645.72,-170.71 666.19,-81.31"/> <polygon fill="#000000" stroke="#000000" points="669.57,-82.22 668.39,-71.69 662.74,-80.66 669.57,-82.22"/> <text xml:space="preserve" text-anchor="middle" x="607.7" y="-289.16" font-family="monospace" font-size="10.00">owns</text> </g> <!-- sbe_sis::sbe_quit --> <g id="node11" class="node"> <title>sbe_sis::sbe_quit</title> <polygon fill="#81c169" stroke="black" points="359.71,-151.73 359.71,-196.23 477.71,-196.23 477.71,-151.73 359.71,-151.73"/> <text xml:space="preserve" text-anchor="middle" x="418.71" y="-182.73" font-family="monospace" font-size="10.00">pub unsafe fn</text> <polyline fill="none" stroke="black" points="359.71,-173.98 477.71,-173.98"/> <text xml:space="preserve" text-anchor="middle" x="418.71" y="-160.48" font-family="monospace" font-size="10.00">sbe_sis::sbe_quit</text> </g> <!-- sbe_sis&#45;&gt;sbe_sis::sbe_quit --> <g id="edge10" class="edge"> <title>sbe_sis&#45;&gt;sbe_sis::sbe_quit</title> <path fill="none" stroke="#000000" d="M558.01,-487.55C532.19,-429.43 463.34,-274.44 433.19,-206.57"/> <polygon fill="#000000" stroke="#000000" points="436.57,-205.56 429.31,-197.84 430.17,-208.4 436.57,-205.56"/> <text xml:space="preserve" text-anchor="middle" x="483.6" y="-351.81" font-family="monospace" font-size="10.00">owns</text> </g> <!-- sbe_sis::sbe_run_with_buffer_impl --> <g id="node12" class="node"> <title>sbe_sis::sbe_run_with_buffer_impl</title> <polygon fill="#f8c04c" stroke="black" points="0,-519.55 0,-564.05 214,-564.05 214,-519.55 0,-519.55"/> <text xml:space="preserve" text-anchor="middle" x="107" y="-550.55" font-family="monospace" font-size="10.00">pub(crate) fn</text> <polyline fill="none" stroke="black" points="0,-541.8 214,-541.8"/> <text xml:space="preserve" text-anchor="middle" x="107" y="-528.3" font-family="monospace" font-size="10.00">sbe_sis::sbe_run_with_buffer_impl</text> </g> <!-- sbe_sis&#45;&gt;sbe_sis::sbe_run_with_buffer_impl --> <g id="edge11" class="edge"> <title>sbe_sis&#45;&gt;sbe_sis::sbe_run_with_buffer_impl</title> <path fill="none" stroke="#000000" d="M538.85,-512.14C477.26,-516.37 331.03,-526.41 225.78,-533.64"/> <polygon fill="#000000" stroke="#000000" points="225.69,-530.14 215.96,-534.32 226.17,-537.13 225.69,-530.14"/> <text xml:space="preserve" text-anchor="middle" x="370.32" y="-527.64" font-family="monospace" font-size="10.00">owns</text> </g> <!-- sbe_sis::sbe_send --> <g id="node13" class="node"> <title>sbe_sis::sbe_send</title> <polygon fill="#f8c04c" stroke="black" points="998.86,-564.22 998.86,-608.72 1116.86,-608.72 1116.86,-564.22 998.86,-564.22"/> <text xml:space="preserve" text-anchor="middle" x="1057.86" y="-595.22" font-family="monospace" font-size="10.00">pub(crate) fn</text> <polyline fill="none" stroke="black" points="998.86,-586.47 1116.86,-586.47"/> <text xml:space="preserve" text-anchor="middle" x="1057.86" y="-572.97" font-family="monospace" font-size="10.00">sbe_sis::sbe_send</text> </g> <!-- sbe_sis&#45;&gt;sbe_sis::sbe_send --> <g id="edge12" class="edge"> <title>sbe_sis&#45;&gt;sbe_sis::sbe_send</title> <path fill="none" stroke="#000000" d="M597.21,-514.68C673.1,-526.51 878.33,-558.49 987.44,-575.5"/> <polygon fill="#000000" stroke="#000000" points="986.74,-578.93 997.16,-577.01 987.81,-572.01 986.74,-578.93"/> <text xml:space="preserve" text-anchor="middle" x="780.33" y="-549.84" font-family="monospace" font-size="10.00">owns</text> </g> <!-- sbe_sis::ssm_data_buffer_create_empty --> <g id="node14" class="node"> <title>sbe_sis::ssm_data_buffer_create_empty</title> <polygon fill="#81c169" stroke="black" points="770.84,-869.25 770.84,-913.75 1008.84,-913.75 1008.84,-869.25 770.84,-869.25"/> <text xml:space="preserve" text-anchor="middle" x="889.84" y="-900.25" font-family="monospace" font-size="10.00">pub fn</text> <polyline fill="none" stroke="black" points="770.84,-891.5 1008.84,-891.5"/> <text xml:space="preserve" text-anchor="middle" x="889.84" y="-878" font-family="monospace" font-size="10.00">sbe_sis::ssm_data_buffer_create_empty</text> </g> <!-- sbe_sis&#45;&gt;sbe_sis::ssm_data_buffer_create_empty --> <g id="edge13" class="edge"> <title>sbe_sis&#45;&gt;sbe_sis::ssm_data_buffer_create_empty</title> <path fill="none" stroke="#000000" d="M587.2,-532.85C642.2,-598.03 800.62,-785.77 863.59,-860.39"/> <polygon fill="#000000" stroke="#000000" points="860.68,-862.37 869.8,-867.75 866.03,-857.85 860.68,-862.37"/> <text xml:space="preserve" text-anchor="middle" x="713.39" y="-701.37" font-family="monospace" font-size="10.00">owns</text> </g> <!-- sbe_sis::ssm_data_buffer_drop --> <g id="node15" class="node"> <title>sbe_sis::ssm_data_buffer_drop</title> <polygon fill="#81c169" stroke="black" points="491.51,-972.92 491.51,-1017.42 681.51,-1017.42 681.51,-972.92 491.51,-972.92"/> <text xml:space="preserve" text-anchor="middle" x="586.51" y="-1003.92" font-family="monospace" font-size="10.00">pub unsafe fn</text> <polyline fill="none" stroke="black" points="491.51,-995.17 681.51,-995.17"/> <text xml:space="preserve" text-anchor="middle" x="586.51" y="-981.67" font-family="monospace" font-size="10.00">sbe_sis::ssm_data_buffer_drop</text> </g> <!-- sbe_sis&#45;&gt;sbe_sis::ssm_data_buffer_drop --> <g id="edge14" class="edge"> <title>sbe_sis&#45;&gt;sbe_sis::ssm_data_buffer_drop</title> <path fill="none" stroke="#000000" d="M568.9,-532.88C571.88,-610.93 581.67,-868.19 585.22,-961.22"/> <polygon fill="#000000" stroke="#000000" points="581.71,-961.11 585.59,-970.97 588.7,-960.84 581.71,-961.11"/> <text xml:space="preserve" text-anchor="middle" x="565.06" y="-751.8" font-family="monospace" font-size="10.00">owns</text> </g> <!-- sbe_sis::ssm_data_buffer_reset --> <g id="node16" class="node"> <title>sbe_sis::ssm_data_buffer_reset</title> <polygon fill="#81c169" stroke="black" points="697.13,-268.29 697.13,-312.79 893.13,-312.79 893.13,-268.29 697.13,-268.29"/> <text xml:space="preserve" text-anchor="middle" x="795.13" y="-299.29" font-family="monospace" font-size="10.00">pub unsafe fn</text> <polyline fill="none" stroke="black" points="697.13,-290.54 893.13,-290.54"/> <text xml:space="preserve" text-anchor="middle" x="795.13" y="-277.04" font-family="monospace" font-size="10.00">sbe_sis::ssm_data_buffer_reset</text> </g> <!-- sbe_sis&#45;&gt;sbe_sis::ssm_data_buffer_reset --> <g id="edge15" class="edge"> <title>sbe_sis&#45;&gt;sbe_sis::ssm_data_buffer_reset</title> <path fill="none" stroke="#000000" d="M591.49,-487.46C632.56,-447.74 717.53,-365.58 763.67,-320.96"/> <polygon fill="#000000" stroke="#000000" points="765.97,-323.61 770.73,-314.14 761.1,-318.58 765.97,-323.61"/> <text xml:space="preserve" text-anchor="middle" x="665.58" y="-408.96" font-family="monospace" font-size="10.00">owns</text> </g> <!-- sbe_sis::ssm_data_buffer_write --> <g id="node17" class="node"> <title>sbe_sis::ssm_data_buffer_write</title> <polygon fill="#81c169" stroke="black" points="799.91,-114.95 799.91,-159.45 995.91,-159.45 995.91,-114.95 799.91,-114.95"/> <text xml:space="preserve" text-anchor="middle" x="897.91" y="-145.95" font-family="monospace" font-size="10.00">pub unsafe fn</text> <polyline fill="none" stroke="black" points="799.91,-137.2 995.91,-137.2"/> <text xml:space="preserve" text-anchor="middle" x="897.91" y="-123.7" font-family="monospace" font-size="10.00">sbe_sis::ssm_data_buffer_write</text> </g> <!-- sbe_sis&#45;&gt;sbe_sis::ssm_data_buffer_write --> <g id="edge16" class="edge"> <title>sbe_sis&#45;&gt;sbe_sis::ssm_data_buffer_write</title> <path fill="none" stroke="#000000" d="M587.93,-487.64C644.42,-423.78 805.87,-241.25 870.59,-168.08"/> <polygon fill="#000000" stroke="#000000" points="872.98,-170.66 876.99,-160.85 867.74,-166.02 872.98,-170.66"/> <text xml:space="preserve" text-anchor="middle" x="717.26" y="-332.61" font-family="monospace" font-size="10.00">owns</text> </g> <!-- sbe_sis::ui_thread_task --> <g id="node18" class="node"> <title>sbe_sis::ui_thread_task</title> <polygon fill="#f8c04c" stroke="black" points="65.31,-733.28 65.31,-777.78 219.31,-777.78 219.31,-733.28 65.31,-733.28"/> <text xml:space="preserve" text-anchor="middle" x="142.31" y="-764.28" font-family="monospace" font-size="10.00">pub(crate) fn</text> <polyline fill="none" stroke="black" points="65.31,-755.53 219.31,-755.53"/> <text xml:space="preserve" text-anchor="middle" x="142.31" y="-742.03" font-family="monospace" font-size="10.00">sbe_sis::ui_thread_task</text> </g> <!-- sbe_sis&#45;&gt;sbe_sis::ui_thread_task --> <g id="edge17" class="edge"> <title>sbe_sis&#45;&gt;sbe_sis::ui_thread_task</title> <path fill="none" stroke="#000000" d="M538.78,-527C466.87,-568.45 280.91,-675.64 191.61,-727.12"/> <polygon fill="#000000" stroke="#000000" points="189.95,-724.03 183.04,-732.06 193.45,-730.1 189.95,-724.03"/> <text xml:space="preserve" text-anchor="middle" x="353.19" y="-631.81" font-family="monospace" font-size="10.00">owns</text> </g> </g> </svg>
