<?xml version="1.0" encoding="UTF-8" standalone="no"?> <!DOCTYPE svg PUBLIC "-//W3C//DTD SVG 1.1//EN"  "http://www.w3.org/Graphics/SVG/1.1/DTD/svg11.dtd"> <!-- Generated by graphviz version 14.1.5 (0)  --> <!-- Pages: 1 --> <svg width="787pt" height="798pt"  viewBox="0.00 0.00 787.00 798.00" xmlns="http://www.w3.org/2000/svg" xmlns:xlink="http://www.w3.org/1999/xlink"> <g id="graph0" class="graph" transform="scale(1 1) rotate(0) translate(28.8 769.7)"> <polygon fill="white" stroke="none" points="-28.8,28.8 -28.8,-769.7 758.24,-769.7 758.24,28.8 -28.8,28.8"/> <text xml:space="preserve" text-anchor="middle" x="364.72" y="-702.7" font-family="Helvetica,sans-Serif" font-size="36.00">sistema</text> <!-- sistema --> <g id="node1" class="node"> <title>sistema</title> <polygon fill="#5397c8" stroke="black" points="341.07,-322.32 341.07,-366.82 399.07,-366.82 399.07,-322.32 341.07,-322.32"/> <text xml:space="preserve" text-anchor="middle" x="370.07" y="-353.32" font-family="monospace" font-size="10.00">crate</text> <polyline fill="none" stroke="black" points="341.07,-344.57 399.07,-344.57"/> <text xml:space="preserve" text-anchor="middle" x="370.07" y="-331.07" font-family="monospace" font-size="10.00">sistema</text> </g> <!-- sistema::block --> <g id="node2" class="node"> <title>sistema::block</title> <polygon fill="#f8c04c" stroke="black" points="560.61,-542.13 560.61,-586.63 660.61,-586.63 660.61,-542.13 560.61,-542.13"/> <text xml:space="preserve" text-anchor="middle" x="610.61" y="-573.13" font-family="monospace" font-size="10.00">pub(crate) mod</text> <polyline fill="none" stroke="black" points="560.61,-564.38 660.61,-564.38"/> <text xml:space="preserve" text-anchor="middle" x="610.61" y="-550.88" font-family="monospace" font-size="10.00">block</text> </g> <!-- sistema&#45;&gt;sistema::block --> <g id="edge1" class="edge"> <title>sistema&#45;&gt;sistema::block</title> <path fill="none" stroke="#000000" d="M394.91,-367.26C438.5,-407.1 528.79,-489.61 577.59,-534.2"/> <polygon fill="#000000" stroke="#000000" points="575.05,-536.62 584.79,-540.78 579.77,-531.45 575.05,-536.62"/> <text xml:space="preserve" text-anchor="middle" x="474.25" y="-455.48" font-family="monospace" font-size="10.00">owns</text> </g> <!-- sistema::channel --> <g id="node3" class="node"> <title>sistema::channel</title> <polygon fill="#f8c04c" stroke="black" points="220.8,-0.5 220.8,-45 320.8,-45 320.8,-0.5 220.8,-0.5"/> <text xml:space="preserve" text-anchor="middle" x="270.8" y="-31.5" font-family="monospace" font-size="10.00">pub(crate) mod</text> <polyline fill="none" stroke="black" points="220.8,-22.75 320.8,-22.75"/> <text xml:space="preserve" text-anchor="middle" x="270.8" y="-9.25" font-family="monospace" font-size="10.00">channel</text> </g> <!-- sistema&#45;&gt;sistema::channel --> <g id="edge2" class="edge"> <title>sistema&#45;&gt;sistema::channel</title> <path fill="none" stroke="#000000" d="M363.09,-321.94C345.9,-266.2 301.43,-122.04 281.15,-56.31"/> <polygon fill="#000000" stroke="#000000" points="284.51,-55.32 278.22,-46.8 277.82,-57.39 284.51,-55.32"/> <text xml:space="preserve" text-anchor="middle" x="310.12" y="-193.88" font-family="monospace" font-size="10.00">owns</text> </g> <!-- sistema::clean_ssm --> <g id="node4" class="node"> <title>sistema::clean_ssm</title> <polygon fill="#f8c04c" stroke="black" points="246.72,-646.65 246.72,-691.15 346.72,-691.15 346.72,-646.65 246.72,-646.65"/> <text xml:space="preserve" text-anchor="middle" x="296.72" y="-677.65" font-family="monospace" font-size="10.00">pub(crate) mod</text> <polyline fill="none" stroke="black" points="246.72,-668.9 346.72,-668.9"/> <text xml:space="preserve" text-anchor="middle" x="296.72" y="-655.4" font-family="monospace" font-size="10.00">clean_ssm</text> </g> <!-- sistema&#45;&gt;sistema::clean_ssm --> <g id="edge3" class="edge"> <title>sistema&#45;&gt;sistema::clean_ssm</title> <path fill="none" stroke="#000000" d="M364.97,-367.12C352.28,-423.22 319.24,-569.32 304.28,-635.48"/> <polygon fill="#000000" stroke="#000000" points="300.91,-634.49 302.12,-645.02 307.74,-636.04 300.91,-634.49"/> <text xml:space="preserve" text-anchor="middle" x="322.62" y="-506.05" font-family="monospace" font-size="10.00">owns</text> </g> <!-- sistema::component --> <g id="node5" class="node"> <title>sistema::component</title> <polygon fill="#f8c04c" stroke="black" points="418.79,-634.39 418.79,-678.89 518.79,-678.89 518.79,-634.39 418.79,-634.39"/> <text xml:space="preserve" text-anchor="middle" x="468.79" y="-665.39" font-family="monospace" font-size="10.00">pub(crate) mod</text> <polyline fill="none" stroke="black" points="418.79,-656.64 518.79,-656.64"/> <text xml:space="preserve" text-anchor="middle" x="468.79" y="-643.14" font-family="monospace" font-size="10.00">component</text> </g> <!-- sistema&#45;&gt;sistema::component --> <g id="edge4" class="edge"> <title>sistema&#45;&gt;sistema::component</title> <path fill="none" stroke="#000000" d="M377.25,-367.26C394.45,-421.64 438.1,-559.6 458.27,-623.38"/> <polygon fill="#000000" stroke="#000000" points="454.83,-624.1 461.18,-632.58 461.51,-621.99 454.83,-624.1"/> <text xml:space="preserve" text-anchor="middle" x="405.76" y="-500.07" font-family="monospace" font-size="10.00">owns</text> </g> <!-- sistema::element --> <g id="node6" class="node"> <title>sistema::element</title> <polygon fill="#f8c04c" stroke="black" points="103.87,-557.48 103.87,-601.98 203.87,-601.98 203.87,-557.48 103.87,-557.48"/> <text xml:space="preserve" text-anchor="middle" x="153.87" y="-588.48" font-family="monospace" font-size="10.00">pub(crate) mod</text> <polyline fill="none" stroke="black" points="103.87,-579.73 203.87,-579.73"/> <text xml:space="preserve" text-anchor="middle" x="153.87" y="-566.23" font-family="monospace" font-size="10.00">element</text> </g> <!-- sistema&#45;&gt;sistema::element --> <g id="edge5" class="edge"> <title>sistema&#45;&gt;sistema::element</title> <path fill="none" stroke="#000000" d="M349.34,-367.12C310.44,-409.43 226.44,-500.79 182.3,-548.81"/> <polygon fill="#000000" stroke="#000000" points="179.75,-546.41 175.56,-556.14 184.91,-551.14 179.75,-546.41"/> <text xml:space="preserve" text-anchor="middle" x="253.82" y="-462.71" font-family="monospace" font-size="10.00">owns</text> </g> <!-- sistema::libmetadata --> <g id="node7" class="node"> <title>sistema::libmetadata</title> <polygon fill="#f8c04c" stroke="black" points="0,-250.42 0,-294.92 100,-294.92 100,-250.42 0,-250.42"/> <text xml:space="preserve" text-anchor="middle" x="50" y="-281.42" font-family="monospace" font-size="10.00">pub(crate) mod</text> <polyline fill="none" stroke="black" points="0,-272.67 100,-272.67"/> <text xml:space="preserve" text-anchor="middle" x="50" y="-259.17" font-family="monospace" font-size="10.00">libmetadata</text> </g> <!-- sistema&#45;&gt;sistema::libmetadata --> <g id="edge6" class="edge"> <title>sistema&#45;&gt;sistema::libmetadata</title> <path fill="none" stroke="#000000" d="M340.82,-338C289.07,-326.37 180.36,-301.95 111.5,-286.48"/> <polygon fill="#000000" stroke="#000000" points="112.38,-283.1 101.86,-284.32 110.85,-289.93 112.38,-283.1"/> <text xml:space="preserve" text-anchor="middle" x="214.16" y="-316.99" font-family="monospace" font-size="10.00">owns</text> </g> <!-- sistema::message_helper --> <g id="node8" class="node"> <title>sistema::message_helper</title> <polygon fill="#f8c04c" stroke="black" points="629.44,-223.66 629.44,-268.16 729.44,-268.16 729.44,-223.66 629.44,-223.66"/> <text xml:space="preserve" text-anchor="middle" x="679.44" y="-254.66" font-family="monospace" font-size="10.00">pub(crate) mod</text> <polyline fill="none" stroke="black" points="629.44,-245.91 729.44,-245.91"/> <text xml:space="preserve" text-anchor="middle" x="679.44" y="-232.41" font-family="monospace" font-size="10.00">message_helper</text> </g> <!-- sistema&#45;&gt;sistema::message_helper --> <g id="edge7" class="edge"> <title>sistema&#45;&gt;sistema::message_helper</title> <path fill="none" stroke="#000000" d="M399.46,-335.2C449.46,-319.25 552.11,-286.52 618.25,-265.42"/> <polygon fill="#000000" stroke="#000000" points="619.04,-268.85 627.5,-262.47 616.91,-262.18 619.04,-268.85"/> <text xml:space="preserve" text-anchor="middle" x="496.85" y="-305.06" font-family="monospace" font-size="10.00">owns</text> </g> <!-- sistema::project --> <g id="node9" class="node"> <title>sistema::project</title> <polygon fill="#f8c04c" stroke="black" points="81.04,-102.47 81.04,-146.97 181.04,-146.97 181.04,-102.47 81.04,-102.47"/> <text xml:space="preserve" text-anchor="middle" x="131.04" y="-133.47" font-family="monospace" font-size="10.00">pub(crate) mod</text> <polyline fill="none" stroke="black" points="81.04,-124.72 181.04,-124.72"/> <text xml:space="preserve" text-anchor="middle" x="131.04" y="-111.22" font-family="monospace" font-size="10.00">project</text> </g> <!-- sistema&#45;&gt;sistema::project --> <g id="edge8" class="edge"> <title>sistema&#45;&gt;sistema::project</title> <path fill="none" stroke="#000000" d="M345.39,-321.87C302.07,-282.03 212.35,-199.51 163.86,-154.91"/> <polygon fill="#000000" stroke="#000000" points="166.43,-152.52 156.7,-148.32 161.69,-157.67 166.43,-152.52"/> <text xml:space="preserve" text-anchor="middle" x="242.63" y="-243.14" font-family="monospace" font-size="10.00">owns</text> </g> <!-- sistema::safety_function --> <g id="node10" class="node"> <title>sistema::safety_function</title> <polygon fill="#f8c04c" stroke="black" points="542.16,-72.35 542.16,-116.85 648.16,-116.85 648.16,-72.35 542.16,-72.35"/> <text xml:space="preserve" text-anchor="middle" x="595.16" y="-103.35" font-family="monospace" font-size="10.00">pub(crate) mod</text> <polyline fill="none" stroke="black" points="542.16,-94.6 648.16,-94.6"/> <text xml:space="preserve" text-anchor="middle" x="595.16" y="-81.1" font-family="monospace" font-size="10.00">safety_function</text> </g> <!-- sistema&#45;&gt;sistema::safety_function --> <g id="edge9" class="edge"> <title>sistema&#45;&gt;sistema::safety_function</title> <path fill="none" stroke="#000000" d="M390.44,-321.95C430.95,-276.96 521.66,-176.22 567.5,-125.31"/> <polygon fill="#000000" stroke="#000000" points="569.89,-127.89 573.98,-118.12 564.69,-123.21 569.89,-127.89"/> <text xml:space="preserve" text-anchor="middle" x="466.97" y="-228.38" font-family="monospace" font-size="10.00">owns</text> </g> <!-- sistema::sbe_data --> <g id="node11" class="node"> <title>sistema::sbe_data</title> <polygon fill="#f8c04c" stroke="black" points="387.65,-15.81 387.65,-60.31 487.65,-60.31 487.65,-15.81 387.65,-15.81"/> <text xml:space="preserve" text-anchor="middle" x="437.65" y="-46.81" font-family="monospace" font-size="10.00">pub(crate) mod</text> <polyline fill="none" stroke="black" points="387.65,-38.06 487.65,-38.06"/> <text xml:space="preserve" text-anchor="middle" x="437.65" y="-24.56" font-family="monospace" font-size="10.00">sbe_data</text> </g> <!-- sistema&#45;&gt;sistema::sbe_data --> <g id="edge10" class="edge"> <title>sistema&#45;&gt;sistema::sbe_data</title> <path fill="none" stroke="#000000" d="M375.04,-322.03C386.81,-268.67 416.41,-134.38 430.28,-71.51"/> <polygon fill="#000000" stroke="#000000" points="433.61,-72.63 432.35,-62.11 426.78,-71.13 433.61,-72.63"/> <text xml:space="preserve" text-anchor="middle" x="390.66" y="-201.52" font-family="monospace" font-size="10.00">owns</text> </g> <!-- sistema::ssm --> <g id="node12" class="node"> <title>sistema::ssm</title> <polygon fill="#f8c04c" stroke="black" points="3.05,-422.68 3.05,-467.18 103.05,-467.18 103.05,-422.68 3.05,-422.68"/> <text xml:space="preserve" text-anchor="middle" x="53.05" y="-453.68" font-family="monospace" font-size="10.00">pub(crate) mod</text> <polyline fill="none" stroke="black" points="3.05,-444.93 103.05,-444.93"/> <text xml:space="preserve" text-anchor="middle" x="53.05" y="-431.43" font-family="monospace" font-size="10.00">ssm</text> </g> <!-- sistema&#45;&gt;sistema::ssm --> <g id="edge11" class="edge"> <title>sistema&#45;&gt;sistema::ssm</title> <path fill="none" stroke="#000000" d="M340.82,-353.83C289.45,-370.09 182.07,-404.09 113.99,-425.64"/> <polygon fill="#000000" stroke="#000000" points="113.33,-422.17 104.86,-428.53 115.45,-428.85 113.33,-422.17"/> <text xml:space="preserve" text-anchor="middle" x="215.4" y="-394.48" font-family="monospace" font-size="10.00">owns</text> </g> <!-- sistema::xml_types --> <g id="node13" class="node"> <title>sistema::xml_types</title> <polygon fill="#81c169" stroke="black" points="657.48,-392.99 657.48,-437.49 727.48,-437.49 727.48,-392.99 657.48,-392.99"/> <text xml:space="preserve" text-anchor="middle" x="692.48" y="-423.99" font-family="monospace" font-size="10.00">pub mod</text> <polyline fill="none" stroke="black" points="657.48,-415.24 727.48,-415.24"/> <text xml:space="preserve" text-anchor="middle" x="692.48" y="-401.74" font-family="monospace" font-size="10.00">xml_types</text> </g> <!-- sistema&#45;&gt;sistema::xml_types --> <g id="edge12" class="edge"> <title>sistema&#45;&gt;sistema::xml_types</title> <path fill="none" stroke="#000000" d="M399.54,-351.03C455.75,-363.35 578.67,-390.3 646.04,-405.06"/> <polygon fill="#000000" stroke="#000000" points="645.16,-408.45 655.67,-407.18 646.66,-401.62 645.16,-408.45"/> <text xml:space="preserve" text-anchor="middle" x="510.79" y="-382.8" font-family="monospace" font-size="10.00">owns</text> </g> </g> </svg>
